<?xml version="1.0" encoding="UTF-8" standalone="no"?>
<!-- Created with Inkscape (http://www.inkscape.org/) -->

<svg
   width="300"
   height="300"
   viewBox="0 0 300 300"
   version="1.1"
   id="svg1"
   inkscape:version="1.4.2 (f4327f4, 2025-05-13)"
   sodipodi:docname="logo.svg"
   xmlns:inkscape="http://www.inkscape.org/namespaces/inkscape"
   xmlns:sodipodi="http://sodipodi.sourceforge.net/DTD/sodipodi-0.dtd"
   xmlns="http://www.w3.org/2000/svg"
   xmlns:svg="http://www.w3.org/2000/svg">
  <sodipodi:namedview
     id="namedview1"
     pagecolor="#505050"
     bordercolor="#ffffff"
     borderopacity="1"
     inkscape:showpageshadow="0"
     inkscape:pageopacity="0"
     inkscape:pagecheckerboard="1"
     inkscape:deskcolor="#505050"
     inkscape:document-units="px"
     inkscape:zoom="0.4125"
     inkscape:cx="130.90909"
     inkscape:cy="163.63636"
     inkscape:window-width="1366"
     inkscape:window-height="697"
     inkscape:window-x="-8"
     inkscape:window-y="-8"
     inkscape:window-maximized="1"
     inkscape:current-layer="layer1" />
  <defs
     id="defs1">
    <clipPath
       id="clip_path_1"
       clipPathUnits="userSpaceOnUse">
   <path
   d="M 3175,1058 L 15478,1058 15478,11245 3175,11245 3175,1058 Z "
   id="path6" />

  </clipPath>
  </defs>
  <g
     inkscape:label="Layer 1"
     inkscape:groupmode="layer"
     id="layer1">
 <path
   fill="#ffffff"
   stroke="none"
   d="m 14.72484,150.5268 v 0 c 0,-24.06597 6.33057,-47.72406 18.37172,-68.575804 C 45.13771,61.099251 62.4489,43.78806 83.30064,31.76323 104.15239,19.722082 127.79416,13.375189 151.87645,13.375189 v 0 c 24.06598,0 47.70775,6.346893 68.55949,18.388041 20.85175,12.02483 38.16294,29.336021 50.20409,50.187766 12.04114,20.851744 18.37172,44.509834 18.37172,68.575804 v 0 0 c 0,24.06599 -6.33058,47.72407 -18.37172,68.57581 -12.04115,20.85175 -29.35234,38.16294 -50.20409,50.18777 -20.85174,12.04115 -44.49351,18.38804 -68.55949,18.38804 v 0 c -24.08229,0 -47.72406,-6.34689 -68.57581,-18.38804 C 62.4489,257.26555 45.13771,239.95436 33.09656,219.10261 21.05541,198.25087 14.72484,174.59279 14.72484,150.5268 Z"
   id="path1"
   style="stroke-width:0.0163159" />

 <path
   fill="none"
   stroke="#1574b1"
   stroke-width="5.61267"
   d="m 14.72484,150.5268 v 0 c 0,-24.06597 6.33057,-47.72406 18.37172,-68.575804 C 45.13771,61.099251 62.4489,43.78806 83.30064,31.76323 104.15239,19.722082 127.79416,13.375189 151.87645,13.375189 v 0 c 24.06598,0 47.70775,6.346893 68.55949,18.388041 20.85175,12.02483 38.16294,29.336021 50.20409,50.187766 12.04114,20.851744 18.37172,44.509834 18.37172,68.575804 v 0 0 c 0,24.06599 -6.33058,47.72407 -18.37172,68.57581 -12.04115,20.85175 -29.35234,38.16294 -50.20409,50.18777 -20.85174,12.04115 -44.49351,18.38804 -68.55949,18.38804 v 0 c -24.08229,0 -47.72406,-6.34689 -68.57581,-18.38804 C 62.4489,257.26555 45.13771,239.95436 33.09656,219.10261 21.05541,198.25087 14.72484,174.59279 14.72484,150.5268 Z"
   id="path2" />

 <path
   fill="#d92424"
   stroke="none"
   d="m 24.2207,150.54312 v 0 c 0,-22.0428 5.80847,-43.71035 16.82171,-62.799973 11.02957,-19.105941 26.88864,-34.9487 45.97826,-45.978259 19.10594,-11.02956 40.75717,-16.83803 62.81629,-16.83803 v 0 c 22.04281,0 43.69403,5.80847 62.79997,16.83803 19.08963,11.029559 34.9487,26.872318 45.97826,45.978259 11.01325,19.089623 16.82171,40.757173 16.82171,62.799973 v 0 0 c 0,22.04281 -5.80846,43.71035 -16.82171,62.79997 -11.02956,19.10594 -26.88863,34.9487 -45.97826,45.97826 -19.10594,11.02956 -40.75716,16.83803 -62.79997,16.83803 v 0 c -22.05912,0 -43.71035,-5.80847 -62.81629,-16.83803 C 67.93105,248.29179 52.07198,232.44903 41.04241,213.34309 30.02917,194.25347 24.2207,172.58593 24.2207,150.54312 Z"
   id="path3"
   style="stroke-width:0.0163159" />

 <path
   fill="#ffffff"
   stroke="none"
   d="m 39.83504,122.47974 v 0 c 0,-19.30173 5.07425,-38.260832 14.73327,-54.984649 9.65903,-16.723816 23.52756,-30.592348 40.25137,-40.25137 16.72382,-9.659027 35.68292,-14.733277 54.98465,-14.733277 v 0 c 19.30173,0 38.26083,5.07425 54.98465,14.733277 16.72381,9.659022 30.59234,23.527554 40.25137,40.25137 9.65902,16.723817 14.73327,35.682919 14.73327,54.984649 v 0 0 c 0,19.30173 -5.07425,38.26083 -14.73327,54.98465 -9.65903,16.72381 -23.52756,30.59234 -40.25137,40.25137 -16.72382,9.65902 -35.68292,14.73327 -54.98465,14.73327 v 0 c -19.30173,0 -38.26083,-5.07425 -54.98465,-14.73327 C 78.09587,208.05673 64.22734,194.1882 54.56831,177.46439 44.90929,160.74057 39.83504,141.78147 39.83504,122.47974 Z"
   id="path4"
   style="stroke-width:0.0163159" />

 <path
   fill="none"
   stroke="#1574b1"
   stroke-width="5.61267"
   d="m 14.59431,150.4126 v 0 c 0,-24.06599 6.33058,-47.72407 18.37172,-68.575816 C 45.00718,60.98504 62.31837,43.673848 83.17012,31.649018 104.02186,19.60787 127.66363,13.260977 151.74593,13.260977 v 0 c 24.06597,0 47.70774,6.346893 68.55949,18.388041 20.85174,12.02483 38.16293,29.336022 50.20408,50.187766 12.04114,20.851746 18.37172,44.509826 18.37172,68.575816 v 0 0 c 0,24.06597 -6.33058,47.72406 -18.37172,68.5758 -12.04115,20.85175 -29.35234,38.16294 -50.20408,50.18777 -20.85175,12.04114 -44.49352,18.38804 -68.55949,18.38804 v 0 c -24.0823,0 -47.72407,-6.3469 -68.57581,-18.38804 C 62.31837,257.15134 45.00718,239.84015 32.96603,218.9884 20.92489,198.13666 14.59431,174.47857 14.59431,150.4126 Z"
   id="path5" />

 
 <g
   clip-path="url(#clip_path_1)"
   id="g7"
   transform="matrix(0.01631592,0,0,0.01631592,-0.9547586,-4.702848)">
  <path
   fill="#1574b1"
   stroke="none"
   d="m 4948,8301 c -11,-72 -16,-238 -16,-498 1,-414 13,-589 73,-1010 193,-1356 596,-2505 1186,-3377 320,-473 781,-988 1067,-1193 138,-98 370,-216 492,-249 326,-88 560,4 702,275 105,202 123,342 159,1278 7,156 10,176 25,163 39,-31 236,-320 274,-400 110,-230 106,-181 104,-1571 l -3,-1210 52,-30 c 74,-43 145,-58 263,-59 116,0 212,24 275,68 l 43,29 -4,1068 c -4,1204 4,1444 49,1573 53,151 117,262 265,453 39,52 74,92 76,90 2,-3 12,-188 22,-412 30,-683 52,-850 138,-1023 113,-229 298,-343 522,-324 228,19 457,114 698,293 202,149 414,357 641,628 243,291 493,645 657,931 497,866 858,2112 986,3396 26,258 37,821 19,1008 -33,363 -114,582 -271,741 -103,104 -163,130 -314,136 -167,6 -252,-18 -576,-161 -514,-227 -649,-271 -1161,-379 -530,-111 -701,-169 -908,-307 -362,-241 -521,-560 -569,-1141 -29,-357 0,-1269 72,-2295 13,-185 24,-370 24,-411 v -74 l -291,-295 c -296,-299 -360,-350 -422,-334 -14,3 -169,148 -343,321 l -318,315 20,281 c 71,1001 96,1603 89,2150 -7,507 -15,588 -77,805 -87,300 -247,522 -491,680 -205,134 -376,192 -865,295 -505,106 -648,149 -993,300 -430,188 -477,207 -563,229 -59,15 -130,23 -211,23 -113,0 -128,-3 -199,-38 -208,-105 -343,-353 -398,-738 z m 1119,-224 c 20,-291 31,-347 96,-473 31,-60 120,-201 198,-313 214,-304 202,-290 213,-263 13,33 12,316 -1,439 -6,57 -27,160 -48,230 -20,70 -36,135 -36,144 1,39 89,-118 124,-221 28,-84 41,-182 56,-436 14,-245 35,-357 97,-517 50,-131 137,-296 198,-377 52,-69 322,-340 404,-405 41,-33 48,-48 81,-174 28,-110 126,-428 152,-497 3,-7 -48,39 -113,102 -99,97 -137,125 -231,172 -199,97 -369,127 -724,127 -211,0 -233,2 -319,31 -108,36 -211,93 -180,99 11,2 57,-8 102,-22 60,-19 123,-28 232,-32 157,-5 207,5 168,36 -90,70 -492,423 -492,431 0,35 65,-6 246,-156 138,-114 228,-175 325,-221 88,-41 311,-89 464,-101 178,-13 206,9 135,108 -142,198 -353,411 -514,518 -198,132 -319,166 -682,192 -136,10 -256,21 -267,24 -60,20 -61,23 -14,32 27,5 127,10 223,10 202,1 236,12 204,65 -10,17 -90,107 -178,201 -154,164 -203,223 -193,233 2,2 61,-44 130,-104 199,-170 419,-331 517,-379 106,-50 252,-111 266,-111 46,0 -91,285 -260,541 -171,259 -327,371 -777,557 -83,34 -127,67 -91,67 11,0 67,-18 125,-40 144,-54 400,-132 408,-124 12,11 -112,246 -189,357 -40,60 -131,169 -201,242 -125,133 -145,178 -49,112 67,-47 239,-210 282,-268 19,-28 40,-50 45,-50 5,0 9,105 9,234 0,228 8,277 35,206 6,-16 17,-117 24,-226 z m 6580,-202 c 4,0 65,58 137,130 125,126 259,230 275,214 5,-4 -46,-63 -112,-131 -66,-68 -151,-164 -188,-214 -65,-86 -213,-360 -213,-393 0,-20 15,-16 299,78 128,42 235,74 238,71 12,-11 -62,-56 -144,-86 -247,-93 -363,-156 -495,-266 -146,-124 -281,-309 -429,-588 -58,-110 -87,-221 -59,-221 25,0 219,83 308,132 110,61 238,156 438,329 90,76 167,139 172,139 26,1 -50,-91 -218,-265 -110,-114 -182,-198 -178,-208 9,-23 65,-31 223,-31 402,-1 320,-46 -131,-73 -193,-11 -236,-18 -330,-49 -195,-64 -352,-176 -578,-408 -136,-141 -258,-291 -258,-319 0,-17 71,-40 123,-41 55,0 285,37 382,62 143,36 247,96 465,270 185,148 232,179 232,151 0,-9 -175,-167 -434,-392 -52,-47 -65,-63 -51,-70 36,-20 260,-10 359,16 53,15 110,29 126,32 l 30,5 -27,-24 c -15,-13 -72,-42 -126,-63 -98,-38 -102,-39 -384,-48 -156,-5 -310,-13 -342,-17 -160,-22 -327,-80 -438,-152 -75,-48 -230,-194 -266,-250 -11,-17 15,75 56,204 41,129 88,282 103,339 l 28,105 136,122 c 224,201 345,349 446,548 120,235 161,399 177,713 10,217 27,328 67,436 35,97 93,207 103,197 3,-3 -11,-61 -31,-129 -61,-204 -87,-494 -62,-677 l 7,-59 124,170 c 325,447 357,519 382,868 16,229 30,308 52,294 6,-4 8,-102 4,-229 -3,-122 -3,-222 2,-222 z m -5816,135 c 88,-211 254,-492 277,-469 10,10 27,131 42,297 7,83 16,155 20,161 20,33 27,-56 27,-351 l 1,-329 53,-154 c 70,-200 88,-295 96,-492 7,-162 7,-162 -11,-87 -20,91 -63,185 -110,245 -19,24 -98,112 -176,196 -132,142 -156,175 -130,175 6,0 66,-44 133,-96 68,-53 128,-97 134,-97 33,0 -86,315 -242,637 -150,312 -168,356 -168,411 0,55 18,40 54,-47 z m 5042,46 c 0,-62 -39,-159 -175,-427 -91,-183 -151,-319 -190,-437 -32,-95 -54,-176 -50,-180 11,-11 57,19 169,107 101,80 126,94 126,72 0,-6 -60,-75 -133,-153 -214,-226 -253,-284 -294,-427 -18,-63 -18,-60 -13,128 5,183 8,198 48,313 85,239 91,279 92,599 0,160 3,302 7,317 13,50 26,28 34,-60 14,-156 33,-303 44,-332 9,-24 14,-26 30,-12 50,41 245,379 245,425 0,24 38,102 50,102 6,0 10,-15 10,-35 z M 7773,7346 c 12,0 30,39 76,162 19,53 40,101 46,108 27,27 25,-14 -5,-123 -83,-302 -119,-652 -66,-652 7,0 61,44 119,98 136,125 276,224 276,195 0,-4 -60,-72 -133,-152 -244,-265 -352,-454 -430,-756 l -22,-83 -27,150 -28,150 37,88 c 52,126 88,305 95,472 7,169 -18,325 -89,558 -23,77 -47,155 -53,173 -7,25 -6,33 5,30 8,-3 42,-82 77,-176 57,-158 100,-242 122,-242 z m 3299,358 c -9,-35 -31,-104 -46,-154 -70,-219 -72,-231 -72,-504 0,-287 9,-340 83,-528 l 41,-103 -27,-144 -26,-143 -39,137 c -83,288 -201,491 -422,723 -73,76 -133,142 -133,146 0,15 69,-20 126,-64 33,-25 105,-87 159,-138 64,-60 106,-91 118,-86 13,5 17,29 17,108 0,143 -18,261 -73,475 -26,102 -44,188 -41,191 13,13 31,-19 83,-148 29,-72 58,-133 65,-135 16,-6 52,71 116,253 59,168 63,177 79,177 6,0 2,-29 -8,-63 z M 8242,6300 c -101,-229 -119,-297 -119,-446 0,-124 6,-155 30,-155 17,0 104,92 201,214 120,150 128,90 12,-78 -226,-325 -243,-367 -268,-642 -22,-235 -16,-233 -122,-36 l -92,170 34,51 c 19,28 47,86 61,129 32,92 37,266 20,721 -7,192 -6,265 3,253 7,-10 13,-37 13,-60 0,-87 57,-265 84,-265 7,0 62,103 123,228 61,125 115,228 120,228 5,1 9,-9 9,-21 0,-35 -20,-90 -109,-291 z m 2310,-139 c 26,-15 44,29 72,176 15,79 33,144 39,144 7,0 8,-61 4,-154 -5,-84 -11,-270 -16,-414 -8,-302 0,-359 69,-498 26,-51 43,-99 39,-110 -4,-11 -46,-90 -92,-175 -65,-120 -86,-150 -92,-132 -5,12 -12,93 -16,179 -11,245 -41,327 -211,569 -94,134 -146,220 -146,240 0,39 45,-1 163,-144 121,-147 131,-156 147,-135 13,17 16,59 12,185 -5,179 -1,167 -141,484 -66,148 -93,257 -58,228 10,-8 33,-52 52,-96 52,-124 159,-337 175,-347 z m 2003,-914 c -159,-128 -369,-342 -369,-375 0,-4 82,-8 183,-8 133,0 193,-5 219,-17 34,-17 27,-18 -120,-26 -163,-9 -221,-19 -330,-61 -98,-38 -565,-275 -565,-287 0,-14 98,-71 160,-93 32,-11 153,-23 328,-33 153,-8 289,-21 301,-28 12,-7 19,-14 16,-15 -3,-1 -110,-8 -238,-16 -138,-9 -236,-20 -245,-28 -19,-19 -1,-42 157,-210 141,-149 174,-207 83,-143 -29,19 -116,91 -196,158 -197,169 -252,209 -344,252 -163,76 -327,89 -492,37 -173,-54 -199,-103 -126,-236 91,-166 241,-345 328,-393 32,-17 107,-50 166,-73 195,-75 379,-168 363,-183 -3,-3 -44,11 -92,31 -102,42 -341,120 -367,120 -10,0 -19,-4 -19,-9 0,-6 30,-64 67,-130 81,-147 114,-232 122,-317 6,-60 4,-64 -11,-43 -9,14 -32,60 -51,103 -43,101 -129,251 -195,342 -62,86 -241,271 -262,271 -23,0 -30,-60 -30,-260 0,-217 21,-346 103,-620 30,-100 52,-187 50,-194 -12,-35 -124,256 -184,478 l -20,72 -27,-31 c -72,-84 -199,-497 -199,-649 0,-28 -3,-47 -7,-43 -13,13 -5,212 13,307 10,51 55,198 99,327 l 81,234 -1,180 c -1,268 -34,387 -135,478 -75,68 -117,85 -225,91 l -98,5 102,141 102,142 65,-29 c 85,-37 130,-36 301,8 239,62 347,126 407,240 10,21 43,104 71,184 82,229 133,333 163,333 12,0 12,-3 -43,-151 -21,-59 -62,-181 -90,-270 -28,-89 -61,-183 -74,-208 -13,-26 -21,-49 -18,-52 7,-7 230,88 388,165 166,81 259,149 456,336 167,158 366,306 366,271 0,-2 -39,-36 -87,-75 z m -6420,22 c 39,-26 163,-133 277,-238 232,-216 339,-287 619,-412 176,-79 199,-85 184,-52 -5,11 -51,142 -102,291 -51,149 -99,286 -106,304 -8,19 -14,43 -14,53 0,70 113,-146 175,-333 65,-200 121,-271 264,-338 87,-41 336,-107 403,-107 26,0 75,11 109,25 34,13 65,22 68,18 4,-3 48,-64 99,-135 l 94,-130 -83,-8 c -157,-14 -255,-77 -324,-204 l -42,-76 -3,-235 -4,-234 68,-186 c 98,-269 126,-387 133,-559 l 5,-144 -30,165 c -16,90 -46,214 -66,274 -52,154 -117,291 -135,285 -9,-3 -36,-66 -60,-141 -68,-207 -128,-356 -154,-379 -21,-19 -21,-14 7,74 17,52 54,188 84,302 l 53,207 v 221 c 0,229 -3,260 -30,260 -25,0 -191,-186 -269,-300 -38,-57 -109,-175 -158,-262 -48,-88 -92,-160 -98,-160 -42,0 83,314 178,448 34,48 37,57 19,57 -34,0 -212,-54 -350,-107 -70,-26 -128,-46 -131,-43 -13,13 156,103 298,157 90,34 190,76 224,93 72,36 156,126 256,273 137,199 150,253 79,320 -24,22 -70,48 -105,58 -70,21 -238,24 -335,7 -106,-20 -268,-109 -395,-217 -307,-262 -400,-326 -359,-249 8,15 73,87 145,161 80,83 130,145 130,160 0,37 -45,48 -202,49 -164,2 -267,13 -270,29 -5,20 72,29 340,41 198,8 271,16 312,32 70,28 144,74 144,90 0,15 -535,279 -619,305 -73,23 -232,43 -354,44 l -90,1 42,20 c 33,16 80,20 231,20 104,0 189,3 189,7 0,34 -202,241 -357,365 -48,38 -87,72 -87,74 0,16 41,-1 103,-41 z"
   id="path7" />

 </g>

 <path
   fill="#e4a8a3"
   stroke="none"
   d="m 118.31461,205.07092 c -0.21211,-0.39158 -0.45685,-3.50792 -0.53843,-6.93426 -0.16316,-5.67794 -0.26105,-6.37953 -1.1258,-7.84796 -1.24001,-2.08844 -5.00898,-5.69426 -7.04847,-6.72216 -0.88107,-0.45685 -2.05581,-1.14211 -2.61055,-1.51738 -0.55474,-0.39158 -2.44739,-1.48475 -4.19319,-2.43107 -1.76212,-0.93001 -4.32372,-2.44739 -5.69426,-3.36108 -2.30054,-1.51738 -4.43793,-2.88792 -7.55427,-4.82951 -2.34949,-1.45212 -9.88745,-8.25586 -9.88745,-8.90849 0,-0.22843 -1.24001,-2.88792 -4.43793,-9.61008 -2.33317,-4.92741 -4.01371,-8.6148 -4.01371,-8.87586 0,-0.26105 -0.45685,-1.35422 -2.21897,-5.20478 -2.83897,-6.249 -3.2795,-8.92481 -2.65949,-16.34855 0.26105,-3.29582 0.65264,-8.38638 0.86474,-11.32325 0.21211,-2.93687 0.65264,-6.20005 0.96264,-7.26058 0.97896,-3.26319 3.08371,-4.030035 4.79688,-1.74581 1.71317,2.30055 2.38213,5.33531 3.52424,15.97329 0.68527,6.54268 0.65264,9.25113 -0.16316,9.25113 -0.73422,0 -3.10002,2.51265 -3.10002,3.2795 0,1.6479 2.25159,5.23741 5.13951,8.23953 1.10948,1.14212 2.08844,2.31687 2.20265,2.61055 0.0979,0.29369 0.31,0.44053 0.44053,0.31001 0.27737,-0.26106 -1.27264,-3.32845 -1.79475,-3.52424 -0.19579,-0.0653 -0.35895,-0.29369 -0.35895,-0.48948 0,-0.19579 -0.7179,-1.46843 -1.59896,-2.83897 -2.43107,-3.76898 -2.13739,-5.98794 0.78316,-5.97163 1.40317,0 4.16056,0.78317 4.69899,1.32159 0.14684,0.14685 0.68527,0.27737 1.17474,0.27737 0.5058,0 1.87633,0.75054 3.05108,1.64791 4.37267,3.05108 7.24427,7.45638 10.78482,11.2743 6.05321,6.42847 6.62427,6.869 9.36534,7.39111 0.83211,0.14684 1.50106,0.62001 1.72949,0.63632 8.20691,0.83212 2.88791,0.52211 5.7432,0.8158 3.57319,0.32632 8.07638,1.35422 10.42587,2.39844 0.94633,0.42421 1.97423,0.76685 2.30055,0.76685 0.32632,0 0.60369,0.17947 0.60369,0.39158 0,0.22842 0.19579,0.4079 0.44053,0.4079 1.07685,0 11.19272,9.75692 12.33483,11.8943 0.27737,0.53843 0.66895,0.97896 0.84843,0.97896 0.19579,0 0.45685,0.4079 0.58737,0.93001 0.13053,0.50579 0.78317,1.50106 1.45212,2.20264 1.40317,1.46844 3.32845,5.41689 4.06266,8.32112 0.62001,2.43107 0.65264,5.98794 0.19579,16.21802 -0.26105,5.77584 -0.50579,7.91323 -0.93,8.33744 -0.45685,0.47316 -3.01845,0.57106 -14.39064,0.57106 -12.75905,0 -13.85222,-0.0489 -14.19485,-0.70159 z m 27.93285,-0.40789 c 0.29369,-0.1958 0.53842,-2.88792 0.68527,-7.73375 0.11421,-4.0953 0.32632,-8.35375 0.47316,-9.47955 0.32632,-2.70844 -0.58738,-6.52637 -2.61055,-10.80114 -1.86001,-3.94845 -1.6479,-3.85055 -9.05533,-4.63372 -9.13692,-0.97895 -13.98274,-1.82738 -18.92647,-3.2795 -0.66895,-0.19579 -1.61527,-0.35895 -2.08844,-0.35895 -0.96264,0 -4.69898,-0.93001 -7.11374,-1.77843 -0.89737,-0.31001 -2.70844,-0.84843 -4.03003,-1.2237 -4.58477,-1.24001 -6.83637,-1.94159 -8.45164,-2.62686 -0.88106,-0.35895 -2.77371,-1.09317 -4.20951,-1.59896 -1.45212,-0.52211 -2.79002,-1.09317 -3.00213,-1.27264 -0.21211,-0.1958 -0.75053,-0.34264 -1.20738,-0.34264 -0.45684,-0.0163 -1.59896,-0.35895 -2.54528,-0.79948 -2.67581,-1.20737 -4.34004,-1.41948 -4.66635,-0.57106 -0.14685,0.39159 -0.13053,0.8158 0.0489,0.94633 0.17948,0.11421 0.75054,1.09316 1.28896,2.1537 1.10948,2.20265 2.10475,3.23055 6.91795,7.22795 3.05108,2.54529 11.45378,8.01112 14.34169,9.34903 0.73422,0.34263 2.44739,1.38685 3.81793,2.33317 1.37053,0.93001 2.98581,1.95791 3.60582,2.26791 2.08843,1.06054 5.71057,4.25846 7.01584,6.18374 1.82738,2.70844 2.10476,4.14424 2.12107,10.34429 0,3.00213 0.11421,5.58004 0.26105,5.72689 0.37527,0.37526 26.75811,0.32631 27.32917,-0.0326 z M 81.26115,160.13688 c 0,-0.11421 0.0979,-0.19579 0.1958,-0.19579 0.11421,0 0.2121,0.0816 0.2121,0.19579 0,0.11421 -0.0979,0.19579 -0.2121,0.19579 -0.0979,0 -0.1958,-0.0816 -0.1958,-0.19579 z m 1.20738,-0.4079 c 0,-0.0979 0.0979,-0.19579 0.19579,-0.19579 0.11421,0 0.21211,0.0979 0.21211,0.19579 0,0.11422 -0.0979,0.21211 -0.21211,0.21211 -0.0979,0 -0.19579,-0.0979 -0.19579,-0.21211 z m 5.87373,-9.3327 c -0.32632,-0.62001 -1.19106,-1.76212 -1.92527,-2.5616 -0.73422,-0.79948 -2.05581,-2.38213 -2.93687,-3.50792 -1.51738,-1.97423 -2.21897,-2.51265 -2.21897,-1.72949 0,0.19579 0.26106,0.57106 0.57106,0.83211 0.32632,0.26106 0.97896,1.24001 1.45212,2.1537 0.81579,1.61528 4.68267,5.89005 5.31899,5.90636 0.17947,0 0.0653,-0.48947 -0.26106,-1.09316 z m 69.1795,54.87044 c -0.62001,-0.45685 -0.70158,-1.72949 -0.78316,-12.97116 -0.0816,-12.02483 -0.0653,-12.51431 0.78316,-14.26012 0.47316,-0.99527 1.14211,-2.4637 1.48475,-3.24686 0.34263,-0.78317 1.17474,-2.00686 1.8437,-2.70845 0.66895,-0.70158 1.22369,-1.56632 1.22369,-1.92527 0,-0.35895 2.57791,-3.21424 5.72689,-6.3469 6.78742,-6.75479 8.51691,-8.28848 9.33271,-8.28848 0.32631,0 1.50106,-0.35896 2.62686,-0.8158 1.12579,-0.44053 2.44739,-0.79948 2.93686,-0.79948 0.48948,0 1.35422,-0.24474 1.9416,-0.55474 0.96264,-0.50579 4.24214,-0.94632 9.39796,-1.27264 3.00213,-0.19579 4.5032,-1.02791 7.84796,-4.32372 4.04635,-4.03003 6.42847,-6.54268 6.42847,-6.78742 0,-0.11421 1.07685,-1.32159 2.41476,-2.67581 1.32159,-1.35422 2.39844,-2.62687 2.39844,-2.80634 2.44739,-2.43107 5.97163,-4.0953 9.15323,-5.27004 1.38685,-0.48948 3.18161,-0.83212 4.01372,-0.75054 l 1.51738,0.11422 -0.0816,2.3658 c -0.0489,1.41949 -0.31,2.52897 -0.63632,2.80634 -0.65264,0.53843 -3.50793,4.47057 -3.50793,4.82951 0,0.26106 -0.93,1.45212 -2.02317,2.61055 -0.34263,0.35895 -0.86474,1.15843 -1.17474,1.77843 -0.31001,0.60369 -1.15843,1.77844 -1.89265,2.61055 -0.73422,0.8158 -1.33791,1.71318 -1.33791,1.95791 0,0.24474 -0.27737,0.57106 -0.60369,0.68527 -0.32631,0.13053 -0.60369,0.5058 -0.60369,0.83211 0,0.32632 -0.31,0.76685 -0.70158,0.99527 -0.39158,0.21211 -0.57106,0.5058 -0.4079,0.66896 0.75054,0.76685 4.78057,-3.16529 7.03216,-6.869 0.94633,-1.55002 2.2516,-3.41003 2.90424,-4.14425 0.65264,-0.73421 1.59896,-1.87633 2.10475,-2.54528 0.5058,-0.66895 1.51738,-1.92528 2.21896,-2.80634 1.5337,-1.89265 2.23529,-4.04635 1.72949,-5.36794 -0.19579,-0.50579 -1.01158,-1.45211 -1.79475,-2.07212 -2.03949,-1.63159 -2.08843,-2.1537 -0.88106,-10.39324 0.0979,-0.66895 0.29369,-2.92055 0.45685,-5.0253 0.14684,-2.10476 0.45684,-4.45425 0.68527,-5.2211 1.56633,-5.22109 2.65949,-6.75479 4.40529,-6.08584 1.58265,0.60369 1.95791,1.38686 2.36581,5.09057 0.22842,1.92528 0.52211,3.6874 0.65264,3.8995 0.13053,0.21211 0.29369,2.03949 0.35895,4.06267 0.0653,2.02317 0.24474,6.68953 0.39158,10.36061 0.24474,5.61268 0.17948,6.90163 -0.34263,8.04375 -0.34264,0.75053 -1.01159,2.52897 -1.50107,3.96477 -0.47316,1.4358 -1.19106,3.32844 -1.61527,4.19319 -0.42422,0.88106 -0.76685,1.7458 -0.76685,1.94159 0,0.19579 -0.89738,2.18633 -1.97423,4.43793 -3.5895,7.52164 -4.47056,9.5285 -4.47056,10.2464 0,0.37527 -0.7179,1.8437 -1.61528,3.23055 -0.88105,1.38686 -1.59896,2.65949 -1.59896,2.83897 0,0.66895 -3.70371,4.04635 -6.49373,5.90636 -1.61528,1.07685 -3.41003,2.3495 -3.96477,2.82266 -0.53842,0.47316 -1.81107,1.28895 -2.80634,1.81106 -0.99527,0.53843 -2.44739,1.41949 -3.21423,1.97423 -0.78317,0.57106 -2.21897,1.45212 -3.21424,1.99054 -2.57791,1.35423 -7.45637,4.29109 -10.0506,6.00426 -3.08371,2.03949 -4.51951,3.49161 -6.18374,6.28163 l -1.45211,2.41475 v 5.90637 c 0,4.82951 -0.13053,6.02057 -0.63633,6.52637 -0.55474,0.55474 -2.38212,0.63632 -13.99905,0.63632 -10.08324,0 -13.5259,-0.13053 -14.04801,-0.50579 z m 27.86759,-6.93427 c 0.19579,-6.37953 0.21211,-6.44479 1.51738,-8.7127 1.19106,-2.03949 5.31899,-6.36321 6.08584,-6.36321 0.16316,0 0.91369,-0.55474 1.66422,-1.2237 0.75054,-0.66895 2.44739,-1.72948 3.7853,-2.3658 1.3379,-0.63633 2.93686,-1.61528 3.55687,-2.20265 0.62,-0.57106 1.37053,-1.04422 1.68053,-1.04422 0.93001,0 1.82739,-0.47316 1.58265,-0.84843 -0.11421,-0.19579 0.0326,-0.35895 0.35895,-0.35895 0.31,0 1.04422,-0.44053 1.63159,-0.99527 0.58737,-0.53842 1.10948,-0.97895 1.17475,-0.97895 0.47316,0.0979 2.3658,-0.96264 2.54528,-1.43581 0.13053,-0.32632 0.37526,-0.5221 0.55474,-0.4079 0.16316,0.0979 0.55474,-0.1142 0.86474,-0.48947 0.31001,-0.39158 0.34264,-0.55474 0.0653,-0.39158 -0.26105,0.16316 -0.58738,0.11421 -0.73422,-0.11422 -0.13052,-0.22842 0.16316,-0.40789 0.70159,-0.40789 0.50579,0 1.32159,-0.27737 1.81107,-0.62001 0.47316,-0.32632 1.07684,-0.55474 1.3379,-0.48948 0.26105,0.0489 0.55474,-0.13052 0.65264,-0.40789 0.11421,-0.29369 -0.14685,-0.48948 -0.65264,-0.48948 -1.37054,0 -0.94632,-0.63632 0.94632,-1.41948 1.0279,-0.42422 1.89265,-1.09317 2.05581,-1.56633 0.24474,-0.73422 0.29368,-0.75054 0.45684,-0.13053 0.24474,0.86474 1.17475,0.91369 1.50107,0.049 0.16316,-0.42422 -0.0327,-0.70159 -0.57106,-0.84843 -0.44053,-0.11421 -0.79948,-0.47316 -0.79948,-0.79948 0,-0.42422 0.27737,-0.53843 0.91369,-0.37527 0.78317,0.19579 0.91369,0.049 0.99527,-1.17475 0.0653,-0.78316 -0.16316,-1.82738 -0.50579,-2.33317 -0.32632,-0.50579 -0.45685,-1.06054 -0.29368,-1.24001 0.16315,-0.17947 -0.0816,-0.13053 -0.55475,0.11421 -0.47316,0.24474 -1.7458,0.75054 -2.82265,1.10948 -2.75739,0.93001 -3.14897,1.30528 -2.30055,2.23529 0.94633,1.04421 0.58738,1.20737 -1.77843,0.76684 -1.55001,-0.29368 -2.39844,-0.26105 -3.3774,0.14685 -0.73421,0.29368 -2.33317,0.76684 -3.54055,1.04422 -1.2237,0.27736 -2.62687,0.83211 -3.13266,1.22369 -0.50579,0.4079 -1.50106,0.84843 -2.21896,0.97895 -1.37054,0.29369 -3.5895,0.93001 -4.89478,1.41949 -0.45684,0.16316 -2.21896,0.50579 -3.91582,0.75053 -1.71317,0.22843 -3.44266,0.60369 -3.83424,0.83211 -1.45212,0.8158 -13.44432,2.87161 -20.36227,3.4753 -5.17214,0.45684 -6.23268,0.91369 -7.45637,3.21423 -2.70844,5.09056 -3.36108,8.79428 -2.83897,16.23434 0.2121,2.98581 0.39158,7.08111 0.39158,9.08797 0.0163,2.00685 0.14685,3.76897 0.29369,3.93213 0.14684,0.14685 6.34689,0.21211 13.77063,0.16316 l 13.49327,-0.11421 z m 17.29487,-22.51597 c 0,-0.11421 0.0816,-0.19579 0.19579,-0.19579 0.11422,0 0.1958,0.0816 0.1958,0.19579 0,0.11421 -0.0816,0.19579 -0.1958,0.19579 -0.11421,0 -0.19579,-0.0816 -0.19579,-0.19579 z m 3.34477,-2.07212 c 0.14684,-0.14684 0.39158,-0.14684 0.53842,0 0.14684,0.14684 0.0326,0.26105 -0.26105,0.26105 -0.29369,0 -0.42422,-0.11421 -0.27737,-0.26105 z m 9.1206,-4.35635 c 0,-0.11421 -0.0979,-0.19579 -0.21211,-0.19579 -0.0979,0 -0.19579,0.0816 -0.19579,0.19579 0,0.11421 0.0979,0.19579 0.19579,0.19579 0.11421,0 0.21211,-0.0816 0.21211,-0.19579 z m 6.42847,-10.14851 c -0.44053,-0.66895 -0.45685,-0.66895 -0.22842,0.0327 0.13052,0.39158 0.24473,1.0279 0.27736,1.40316 0.0327,0.60369 0.0653,0.60369 0.22843,-0.0163 0.0979,-0.39158 -0.0326,-1.01159 -0.27737,-1.41949 z m -0.4079,-1.51738 c 0,-0.11421 -0.0816,-0.19578 -0.19579,-0.19578 -0.11421,0 -0.19579,0.0816 -0.19579,0.19578 0,0.11422 0.0816,0.21211 0.19579,0.21211 0.11421,0 0.19579,-0.0979 0.19579,-0.21211 z"
   id="path8"
   style="stroke-width:0.0163159" />

 <path
   fill="#e18478"
   stroke="none"
   d="m 118.91829,204.69566 c -0.14684,-0.14685 -0.26105,-2.72476 -0.26105,-5.72689 -0.0163,-6.20005 -0.29369,-7.63585 -2.12107,-10.34429 -1.30527,-1.92528 -4.92741,-5.1232 -7.01584,-6.18374 -0.62001,-0.31 -2.23529,-1.3379 -3.60582,-2.26791 -1.37054,-0.94632 -3.08371,-1.99054 -3.81793,-2.33317 -2.88791,-1.33791 -11.29061,-6.80374 -14.34169,-9.34903 -4.8132,-3.9974 -5.80847,-5.0253 -6.91795,-7.22795 -0.53842,-1.06054 -1.10948,-2.03949 -1.28896,-2.1537 -0.17947,-0.13053 -0.19579,-0.55474 -0.0489,-0.94633 0.32631,-0.84842 1.99054,-0.63631 4.66635,0.57106 0.94632,0.44053 2.08844,0.78317 2.54528,0.79948 0.45685,0 0.99527,0.14684 1.20738,0.34264 0.21211,0.17947 1.55001,0.75053 3.00213,1.27264 1.4358,0.50579 3.32845,1.24001 4.20951,1.59896 1.61527,0.68527 3.86687,1.38685 8.45164,2.62686 1.32159,0.37527 3.13266,0.91369 4.03003,1.2237 2.41476,0.84842 6.1511,1.77843 7.11374,1.77843 0.47317,0 1.41949,0.16316 2.08844,0.35895 4.94373,1.45212 9.78955,2.30055 18.92647,3.2795 7.40743,0.78317 7.19532,0.68527 9.05533,4.63372 2.02317,4.27477 2.93687,8.0927 2.61055,10.80114 -0.14684,1.1258 -0.35895,5.38425 -0.47316,9.47955 -0.14685,4.84583 -0.39158,7.53795 -0.68527,7.73375 -0.57106,0.35894 -26.9539,0.40789 -27.32917,0.0326 z M 81.66905,160.13688 c 0,-0.11421 -0.0979,-0.19579 -0.2121,-0.19579 -0.0979,0 -0.1958,0.0816 -0.1958,0.19579 0,0.11421 0.0979,0.19579 0.1958,0.19579 0.11421,0 0.2121,-0.0816 0.2121,-0.19579 z m 1.20738,-0.4079 c 0,-0.0979 -0.0979,-0.19579 -0.21211,-0.19579 -0.0979,0 -0.19579,0.0979 -0.19579,0.19579 0,0.11422 0.0979,0.21211 0.19579,0.21211 0.11421,0 0.21211,-0.0979 0.21211,-0.21211 z m 74.75954,41.05086 c 0,-2.00686 -0.17948,-6.10216 -0.39158,-9.08797 -0.52211,-7.44006 0.13053,-11.14378 2.83897,-16.23434 1.22369,-2.30054 2.28423,-2.75739 7.45637,-3.21423 6.91795,-0.60369 18.91015,-2.6595 20.36227,-3.4753 0.39158,-0.22842 2.12107,-0.60368 3.83424,-0.83211 1.69686,-0.24474 3.45898,-0.58737 3.91582,-0.75053 1.30528,-0.48948 3.52424,-1.1258 4.89478,-1.41949 0.7179,-0.13052 1.71317,-0.57105 2.21896,-0.97895 0.50579,-0.39158 1.90896,-0.94633 3.13266,-1.22369 1.20738,-0.27738 2.80634,-0.75054 3.54055,-1.04422 0.97896,-0.4079 1.82739,-0.44053 3.3774,-0.14685 2.36581,0.44053 2.72476,0.27737 1.77843,-0.76684 -0.84842,-0.93001 -0.45684,-1.30528 2.30055,-2.23529 1.07685,-0.35894 2.34949,-0.86474 2.82265,-1.10948 0.47316,-0.24474 0.7179,-0.29368 0.55475,-0.11421 -0.16317,0.17947 -0.0327,0.73422 0.29368,1.24001 0.34263,0.50579 0.57106,1.55001 0.50579,2.33317 -0.0816,1.2237 -0.2121,1.37054 -0.99527,1.17475 -0.63632,-0.16316 -0.91369,-0.0489 -0.91369,0.37527 0,0.32632 0.35895,0.68527 0.79948,0.79948 0.53842,0.14684 0.73422,0.42421 0.57106,0.84843 -0.32632,0.86474 -1.25633,0.81579 -1.50107,-0.049 -0.16316,-0.62001 -0.2121,-0.60369 -0.45684,0.13053 -0.16316,0.47316 -1.02791,1.14211 -2.05581,1.56633 -1.89264,0.78316 -2.31686,1.41948 -0.94632,1.41948 0.50579,0 0.76685,0.19579 0.65264,0.48948 -0.0979,0.27737 -0.39159,0.45684 -0.65264,0.40789 -0.26106,-0.0653 -0.86474,0.16316 -1.3379,0.48948 -0.48948,0.34264 -1.30528,0.62001 -1.81107,0.62001 -0.53843,0 -0.83211,0.17947 -0.70159,0.40789 0.14684,0.22843 0.47317,0.27738 0.73422,0.11422 0.27737,-0.16316 0.24474,0 -0.0653,0.39158 -0.31,0.37527 -0.70158,0.58737 -0.86474,0.48947 -0.17948,-0.1142 -0.42421,0.0816 -0.55474,0.4079 -0.17948,0.47317 -2.07212,1.5337 -2.54528,1.43581 -0.0653,0 -0.58738,0.44053 -1.17475,0.97895 -0.58737,0.55474 -1.32159,0.99527 -1.63159,0.99527 -0.32632,0 -0.47316,0.16316 -0.35895,0.35895 0.24474,0.37527 -0.65264,0.84843 -1.58265,0.84843 -0.31,0 -1.06053,0.47316 -1.68053,1.04422 -0.62001,0.58737 -2.21897,1.56632 -3.55687,2.20265 -1.33791,0.63632 -3.03476,1.69685 -3.7853,2.3658 -0.75053,0.66896 -1.50106,1.2237 -1.66422,1.2237 -0.76685,0 -4.89478,4.32372 -6.08584,6.36321 -1.30527,2.26791 -1.32159,2.33317 -1.51738,8.7127 l -0.19579,6.42847 -13.49327,0.11421 c -7.42374,0.0489 -13.62379,-0.0163 -13.77063,-0.16316 -0.14684,-0.16316 -0.27737,-1.92528 -0.29369,-3.93213 z m 45.43984,-24.96336 c 0,-0.11421 -0.0816,-0.19579 -0.1958,-0.19579 -0.11421,0 -0.19579,0.0816 -0.19579,0.19579 0,0.11421 0.0816,0.19579 0.19579,0.19579 0.11422,0 0.1958,-0.0816 0.1958,-0.19579 z m 3.4916,-2.07212 c -0.14684,-0.14684 -0.39158,-0.14684 -0.53842,0 -0.14685,0.14684 -0.0163,0.26105 0.27737,0.26105 0.29369,0 0.40789,-0.11421 0.26105,-0.26105 z m 8.17428,-4.35635 c 0,-0.11421 0.0979,-0.19579 0.19579,-0.19579 0.11421,0 0.21211,0.0816 0.21211,0.19579 0,0.11421 -0.0979,0.19579 -0.21211,0.19579 -0.0979,0 -0.19579,-0.0816 -0.19579,-0.19579 z m 6.88531,-8.7127 c -0.0326,-0.37527 -0.14684,-1.01159 -0.27736,-1.40317 -0.22843,-0.70159 -0.21211,-0.70159 0.22842,-0.0326 0.24474,0.4079 0.37526,1.0279 0.27737,1.41949 -0.16316,0.62 -0.19579,0.62 -0.22843,0.0163 z m -0.84842,-2.95319 c 0,-0.11421 0.0816,-0.19578 0.19579,-0.19578 0.11421,0 0.19579,0.0816 0.19579,0.19578 0,0.11422 -0.0816,0.21211 -0.19579,0.21211 -0.11421,0 -0.19579,-0.0979 -0.19579,-0.21211 z"
   id="path9"
   style="stroke-width:0.0163159" />

 <path
   fill="#000000"
   stroke="none"
   d="m 61.71468,177.85597 0.66896,0.97896 c -0.65264,0.35895 -1.06054,0.70158 -1.19107,1.06053 -0.13052,0.35895 -0.0979,0.73422 0.0979,1.14211 0.14684,0.29369 0.34263,0.5058 0.58737,0.65264 0.24474,0.14685 0.5058,0.21211 0.76685,0.17948 0.26106,-0.0326 0.66895,-0.17948 1.15843,-0.42422 l 6.11847,-3.05107 0.57106,1.17474 -6.02058,3.00213 c -0.75053,0.37527 -1.35422,0.57106 -1.86001,0.58737 -0.50579,0.0163 -0.94632,-0.0979 -1.37054,-0.39158 -0.4079,-0.27737 -0.73421,-0.68527 -0.99527,-1.20738 -0.39158,-0.78316 -0.45684,-1.48475 -0.21211,-2.12107 0.24474,-0.63632 0.79948,-1.15842 1.68054,-1.58264 z m 3.72003,12.17168 0.86475,-0.57106 c -0.96264,-0.0163 -1.72949,-0.44053 -2.26792,-1.24001 -0.22842,-0.35895 -0.37526,-0.7179 -0.44053,-1.10949 -0.0653,-0.40789 -0.0489,-0.73421 0.0653,-1.01158 0.11421,-0.27737 0.29368,-0.57106 0.55474,-0.8158 0.16316,-0.17947 0.47316,-0.42421 0.89737,-0.70158 l 3.72003,-2.44739 0.66896,1.01159 -3.32845,2.18633 c -0.53843,0.35895 -0.86474,0.62001 -1.0279,0.78316 -0.24474,0.22843 -0.35895,0.48948 -0.37527,0.79949 -0.0163,0.31 0.0816,0.62 0.27737,0.93 0.19579,0.31 0.45685,0.53843 0.79948,0.7179 0.34264,0.17948 0.66895,0.21211 1.01159,0.14684 0.34263,-0.0653 0.76685,-0.26105 1.28896,-0.60368 l 3.21423,-2.12107 0.66895,1.01159 -6.00425,3.94845 z m 1.89265,2.65949 7.81533,-6.08584 0.73421,0.94633 -7.81532,6.08583 z m 0.049,4.42162 0.76685,-0.86475 c 0.11421,0.24474 0.24473,0.44053 0.39158,0.58737 0.16316,0.1958 0.34263,0.32632 0.52211,0.39159 0.17947,0.0653 0.35895,0.0653 0.53842,0.0489 0.14685,-0.0326 0.45685,-0.13052 0.93001,-0.34263 0.0653,-0.0163 0.16316,-0.0489 0.29369,-0.11421 l 3.52423,-6.83637 0.86475,0.96264 -2.07212,3.88318 c -0.27737,0.5058 -0.57106,1.01159 -0.89738,1.50107 0.5058,-0.24474 1.0279,-0.48948 1.55001,-0.70158 l 4.14425,-1.66423 0.79948,0.89738 -7.24427,2.88791 c -0.76685,0.31001 -1.32159,0.5058 -1.64791,0.57106 -0.45684,0.0979 -0.84843,0.11421 -1.15843,0.0326 -0.32632,-0.0816 -0.62,-0.27737 -0.88106,-0.57105 -0.16316,-0.16316 -0.29368,-0.39159 -0.42421,-0.66895 z m 15.35328,9.26744 -0.75053,0.91369 -5.02531,-4.19319 c 0.17948,-0.24474 0.39158,-0.42422 0.66895,-0.57106 0.4079,-0.22842 0.88106,-0.39158 1.45212,-0.48948 0.57106,-0.0979 1.28896,-0.14684 2.17002,-0.13053 1.40317,0 2.39844,-0.0816 3.01844,-0.22842 0.62001,-0.14684 1.07685,-0.39158 1.37054,-0.73422 0.31,-0.37526 0.44053,-0.81579 0.37527,-1.28895 -0.0653,-0.47316 -0.27737,-0.86475 -0.70159,-1.2237 -0.44053,-0.37526 -0.91369,-0.53842 -1.40317,-0.48947 -0.48947,0.0489 -0.94632,0.29368 -1.35422,0.76684 l -0.86474,-0.89737 c 0.65264,-0.66895 1.3379,-0.97896 2.08844,-1.01159 0.75053,-0.0326 1.46843,0.26106 2.20265,0.88106 0.7179,0.60369 1.12579,1.27264 1.22369,2.03949 0.0979,0.76685 -0.13053,1.45212 -0.62001,2.03949 -0.26105,0.31 -0.55474,0.53843 -0.93,0.73422 -0.37527,0.19579 -0.83212,0.32632 -1.40317,0.42421 -0.57106,0.0979 -1.38686,0.11421 -2.54529,0.13053 -0.94632,0 -1.56632,0.0163 -1.87633,0.049 -0.31,0.0326 -0.57105,0.0979 -0.81579,0.17947 z m 2.10475,-0.22843 1.07685,0.55475 c -0.26105,0.65263 -0.35895,1.17474 -0.26105,1.61527 0.0979,0.44053 0.35895,0.79948 0.76685,1.07685 0.45684,0.32632 0.96263,0.45685 1.51738,0.34264 0.55474,-0.11422 0.99527,-0.39159 1.32159,-0.86475 0.32631,-0.47316 0.42421,-0.96264 0.32631,-1.46843 -0.0979,-0.50579 -0.35895,-0.89738 -0.83211,-1.22369 -0.19579,-0.13053 -0.45684,-0.27738 -0.76685,-0.37527 l 0.70159,-0.79948 c 0.0653,0.0653 0.11421,0.0979 0.14684,0.13053 0.42422,0.27737 0.89738,0.42421 1.38685,0.44053 0.48948,0.0163 0.89738,-0.21211 1.20738,-0.66896 0.26106,-0.37526 0.34264,-0.75053 0.26106,-1.15843 -0.0816,-0.4079 -0.32632,-0.76685 -0.7179,-1.0279 -0.37527,-0.26106 -0.78317,-0.37527 -1.2237,-0.31 -0.44053,0.0653 -0.84843,0.32632 -1.25632,0.75053 l -0.88106,-0.84843 c 0.58737,-0.58737 1.22369,-0.91369 1.90896,-0.99527 0.68527,-0.0816 1.35422,0.11421 1.99054,0.57106 0.45685,0.31 0.79948,0.66895 1.04422,1.1258 0.24474,0.45684 0.35895,0.89737 0.32632,1.37053 -0.0326,0.47317 -0.17948,0.89738 -0.42421,1.25633 -0.24474,0.34263 -0.55475,0.60369 -0.94633,0.76685 -0.39158,0.16316 -0.83211,0.19579 -1.32159,0.11421 0.4079,0.44053 0.62001,0.91369 0.65264,1.45211 0.0326,0.53843 -0.14684,1.07686 -0.50579,1.59896 -0.48948,0.71791 -1.15843,1.1258 -2.02318,1.27265 -0.86474,0.14684 -1.68054,-0.0653 -2.48002,-0.60369 -0.7179,-0.50579 -1.15843,-1.14212 -1.3379,-1.89265 -0.17948,-0.75053 -0.0653,-1.46843 0.34263,-2.20265 z m 5.38425,6.82006 3.63845,-6.20005 0.93001,0.55474 -0.53842,0.94632 c 0.48947,-0.31 0.86474,-0.45684 1.15843,-0.48947 0.29368,-0.0327 0.57105,0.0489 0.79948,0.17947 0.35895,0.21211 0.65263,0.53842 0.89737,0.97895 l -0.94632,0.75054 c -0.16316,-0.31 -0.37527,-0.52211 -0.63632,-0.66896 -0.22843,-0.13052 -0.45685,-0.19578 -0.73422,-0.16315 -0.27737,0.0327 -0.50579,0.14684 -0.73421,0.35895 -0.32632,0.29368 -0.63633,0.66895 -0.89738,1.1258 l -1.89265,3.23054 z m 8.33744,4.51951 0.4079,-0.79948 c -0.7179,0.42421 -1.48475,0.44052 -2.26792,0.0326 -0.50579,-0.26105 -0.89737,-0.63632 -1.19106,-1.14212 -0.27737,-0.48947 -0.4079,-1.04422 -0.37526,-1.68053 0.0326,-0.63633 0.19579,-1.27265 0.53842,-1.92528 0.32632,-0.63632 0.7179,-1.14212 1.20738,-1.56633 0.48948,-0.42422 0.99527,-0.62001 1.56633,-0.68527 0.57105,-0.0653 1.10948,0.0326 1.63159,0.29368 0.37527,0.1958 0.68527,0.47317 0.91369,0.78317 0.22842,0.31 0.34264,0.65264 0.39158,1.01159 l 1.63159,-3.16529 1.06054,0.55474 -4.5032,8.8106 z m -1.77844,-4.92741 c -0.42421,0.8158 -0.53842,1.51738 -0.40789,2.10475 0.13052,0.58738 0.42421,0.99527 0.89737,1.24001 0.47316,0.22842 0.96264,0.26106 1.50107,0.0326 0.53842,-0.22843 0.99527,-0.71791 1.40316,-1.51738 0.45685,-0.88107 0.62001,-1.61528 0.48948,-2.20265 -0.13053,-0.58738 -0.44053,-0.99528 -0.94632,-1.24002 -0.47316,-0.24473 -0.97896,-0.26105 -1.50107,-0.0327 -0.5221,0.22843 -0.99527,0.76685 -1.4358,1.61528 z m 16.47908,7.14637 1.1258,0.75054 c -0.63632,0.93 -1.37054,1.53369 -2.23528,1.82738 -0.86475,0.29368 -1.77844,0.24474 -2.74107,-0.0979 -0.99528,-0.35895 -1.74581,-0.86474 -2.21897,-1.50106 -0.47316,-0.63632 -0.75053,-1.40317 -0.79948,-2.30055 -0.049,-0.89737 0.0816,-1.76212 0.4079,-2.65949 0.34263,-0.96264 0.83211,-1.74581 1.46843,-2.33318 0.63632,-0.58737 1.33791,-0.93001 2.17002,-1.06053 0.83211,-0.13053 1.64791,-0.0489 2.4637,0.24473 0.93001,0.32633 1.63159,0.84843 2.10476,1.55002 0.47316,0.70158 0.65263,1.55001 0.58737,2.49633 l -1.30528,-0.16315 c 0.0326,-0.75054 -0.0979,-1.35423 -0.40789,-1.81107 -0.31,-0.45685 -0.76685,-0.79948 -1.38686,-1.02791 -0.7179,-0.26105 -1.37053,-0.31 -1.97422,-0.13052 -0.60369,0.17947 -1.09317,0.50579 -1.50107,1.01158 -0.4079,0.5058 -0.7179,1.07685 -0.94632,1.68054 -0.27737,0.78317 -0.4079,1.50107 -0.39158,2.18634 0.0163,0.68527 0.2121,1.25632 0.58737,1.72948 0.37527,0.47317 0.86474,0.79948 1.4358,0.99528 0.68527,0.24473 1.33791,0.26105 1.95791,0.0326 0.62,-0.22843 1.15843,-0.68527 1.59896,-1.41949 z m 1.77844,4.24214 2.61055,-9.54481 1.15842,0.31 -0.93001,3.42634 c 0.73422,-0.48948 1.50107,-0.62 2.33318,-0.39158 0.5058,0.13053 0.93001,0.35895 1.25633,0.66896 0.32632,0.31 0.52211,0.66895 0.58737,1.07685 0.0653,0.40789 0,0.93 -0.19579,1.59896 l -1.19106,4.38898 -1.17475,-0.31001 1.20738,-4.38898 c 0.16316,-0.58737 0.14684,-1.04422 -0.0326,-1.38685 -0.17948,-0.34263 -0.50579,-0.57106 -0.97895,-0.70159 -0.34264,-0.0979 -0.68528,-0.11421 -1.04422,0 -0.35896,0.11422 -0.63633,0.27738 -0.86475,0.55475 -0.22842,0.27737 -0.39158,0.70158 -0.53842,1.22369 l -1.02791,3.80161 z m 12.97115,0.7179 1.2237,0.4079 c -0.35895,0.66895 -0.8158,1.15843 -1.4358,1.45212 -0.62001,0.29368 -1.3216,0.35895 -2.13739,0.19579 -1.01159,-0.21211 -1.77844,-0.66895 -2.2516,-1.43581 -0.47316,-0.76684 -0.58737,-1.71316 -0.35895,-2.85528 0.24474,-1.17475 0.71791,-2.03949 1.46843,-2.57791 0.75054,-0.53843 1.61528,-0.70159 2.5616,-0.5058 0.94633,0.19579 1.64791,0.65264 2.12107,1.41949 0.47317,0.76685 0.58738,1.72949 0.34264,2.88791 -0.0163,0.0816 -0.0326,0.17948 -0.0653,0.32632 l -5.2374,-1.06053 c -0.11422,0.78316 -0.0163,1.41948 0.29368,1.90896 0.31,0.48948 0.75054,0.79948 1.33791,0.91369 0.44053,0.0979 0.81579,0.0326 1.17474,-0.13052 0.35895,-0.16316 0.68527,-0.47317 0.96264,-0.94633 z m -3.50792,-2.70844 3.91582,0.78316 c 0.0653,-0.60369 0,-1.07685 -0.17947,-1.4358 -0.29369,-0.53842 -0.71791,-0.84842 -1.33791,-0.97895 -0.53842,-0.11422 -1.0279,-0.0163 -1.48475,0.27737 -0.45685,0.29368 -0.76685,0.73421 -0.91369,1.35422 z m 5.87373,3.32844 1.20738,-0.0163 c 0,0.48948 0.13053,0.86474 0.4079,1.17474 0.27737,0.31001 0.68526,0.48948 1.22369,0.55475 0.55474,0.0816 0.96264,0.0326 1.27264,-0.16316 0.31,-0.19579 0.45685,-0.44054 0.5058,-0.73422 0.0326,-0.27737 -0.0326,-0.52211 -0.26106,-0.70159 -0.14684,-0.13052 -0.53843,-0.32631 -1.17475,-0.58737 -0.84842,-0.34263 -1.4358,-0.60369 -1.76211,-0.81579 -0.32632,-0.21211 -0.53843,-0.47316 -0.68527,-0.79948 -0.14685,-0.32632 -0.16316,-0.63632 -0.11422,-0.97896 0.0326,-0.32632 0.14685,-0.60369 0.32633,-0.86474 0.17947,-0.26106 0.42421,-0.44053 0.68526,-0.58738 0.21211,-0.11421 0.47316,-0.19578 0.8158,-0.24473 0.34263,-0.0489 0.70158,-0.0489 1.06053,0 0.55475,0.0816 1.04422,0.2121 1.45212,0.44053 0.4079,0.22842 0.66895,0.47316 0.83211,0.78316 0.16316,0.31 0.24474,0.68527 0.26106,1.15843 h -1.20738 c 0.0163,-0.39158 -0.11421,-0.68527 -0.34263,-0.93001 -0.22843,-0.24474 -0.57106,-0.39158 -1.04422,-0.45684 -0.55475,-0.0653 -0.94633,-0.0327 -1.2237,0.11421 -0.27737,0.14684 -0.4079,0.35895 -0.44053,0.60369 -0.0163,0.16316 0.0163,0.29368 0.0979,0.44053 0.0653,0.13052 0.2121,0.27737 0.42421,0.37526 0.0979,0.0653 0.44053,0.21211 0.99527,0.45685 0.83211,0.34263 1.40317,0.62001 1.72949,0.81579 0.32632,0.1958 0.53843,0.42422 0.70158,0.73422 0.16316,0.31 0.21211,0.65264 0.14685,1.07685 -0.0489,0.4079 -0.22843,0.75053 -0.5058,1.07685 -0.27737,0.32632 -0.65263,0.55474 -1.1258,0.70159 -0.47316,0.13052 -0.99527,0.14684 -1.53369,0.0816 -0.93001,-0.13053 -1.59896,-0.42422 -2.03949,-0.88106 -0.44053,-0.45685 -0.66895,-1.04422 -0.68527,-1.82739 z m 9.98534,2.26792 0.0653,1.07685 c -0.34264,0.049 -0.65264,0.049 -0.91369,0.0326 -0.44053,-0.0489 -0.78317,-0.14684 -1.01159,-0.31 -0.22843,-0.14684 -0.39158,-0.34263 -0.47316,-0.58738 -0.0816,-0.24473 -0.0816,-0.71789 -0.0163,-1.45211 l 0.35895,-4.11161 -0.88106,-0.0816 0.0816,-0.94633 0.89738,0.0816 0.14684,-1.76211 1.27264,-0.62001 -0.22842,2.49634 1.24001,0.11421 -0.0816,0.93001 -1.24001,-0.0979 -0.37527,4.19319 c -0.0163,0.32632 -0.0326,0.57106 0.0163,0.66895 0.0489,0.0979 0.0816,0.19579 0.17947,0.26106 0.0979,0.0653 0.24474,0.0979 0.42422,0.11421 0.13053,0.0163 0.31,0.0163 0.53842,0 z m 5.4332,1.37054 v -9.90377 h 3.41003 c 0.76685,0 1.35422,0.0489 1.76212,0.14684 0.57106,0.13053 1.06053,0.35896 1.45212,0.70159 0.5221,0.44053 0.91369,1.01159 1.17474,1.69686 0.26106,0.68526 0.39158,1.46843 0.39158,2.34949 0,0.75053 -0.0816,1.41948 -0.26105,2.00686 -0.17948,0.58737 -0.4079,1.06053 -0.68527,1.4358 -0.27737,0.37526 -0.57106,0.66895 -0.89737,0.89737 -0.32632,0.22843 -0.70159,0.39159 -1.17475,0.5058 -0.47316,0.11421 -0.99527,0.16316 -1.59896,0.16316 z m 1.30528,-1.17475 h 2.12107 c 0.65263,0 1.15843,-0.0489 1.53369,-0.17947 0.37527,-0.13053 0.66895,-0.29369 0.89738,-0.52211 0.31,-0.31001 0.53843,-0.71791 0.7179,-1.24002 0.17947,-0.52211 0.26105,-1.15842 0.26105,-1.90896 0,-1.0279 -0.16316,-1.82738 -0.50579,-2.38212 -0.34263,-0.55474 -0.75053,-0.93001 -1.24001,-1.1258 -0.35895,-0.13053 -0.93001,-0.19579 -1.69685,-0.19579 h -2.08844 z m 8.28848,-7.39111 -0.0816,-1.38685 1.20737,-0.0653 0.0816,1.37054 z m 0.48948,8.50059 -0.4079,-7.179 1.19107,-0.0653 0.40789,7.17901 z m 2.52897,-2.30054 1.19106,-0.31001 c 0.11421,0.47317 0.32632,0.79949 0.65264,1.04422 0.32631,0.24474 0.78316,0.32632 1.32159,0.27738 0.55474,-0.0489 0.96264,-0.1958 1.20738,-0.45685 0.24473,-0.26106 0.35894,-0.53842 0.32631,-0.84843 -0.0326,-0.26105 -0.16315,-0.48948 -0.42421,-0.60369 -0.16316,-0.0979 -0.60369,-0.19579 -1.27264,-0.31 -0.91369,-0.13053 -1.55001,-0.26105 -1.90897,-0.39158 -0.35894,-0.13053 -0.62,-0.32632 -0.83211,-0.60369 -0.2121,-0.27737 -0.32631,-0.58738 -0.35894,-0.93001 -0.0327,-0.32632 0,-0.63632 0.13052,-0.91369 0.13053,-0.27737 0.31,-0.52211 0.53843,-0.73422 0.17947,-0.16316 0.39158,-0.29368 0.7179,-0.42421 0.32631,-0.13053 0.66895,-0.21211 1.04422,-0.24474 0.55474,-0.0489 1.06053,-0.0326 1.50106,0.0979 0.44053,0.13053 0.76685,0.29369 0.99527,0.55475 0.22842,0.26105 0.39158,0.62 0.52211,1.07685 l -1.17475,0.27737 c -0.0816,-0.37527 -0.26105,-0.62 -0.55474,-0.8158 -0.29368,-0.19579 -0.63632,-0.26105 -1.10948,-0.2121 -0.55474,0.0489 -0.93001,0.19579 -1.15843,0.39158 -0.22842,0.19579 -0.32632,0.44053 -0.29369,0.68527 0.0163,0.16316 0.0653,0.27737 0.17948,0.4079 0.11421,0.11421 0.29369,0.2121 0.50579,0.27736 0.11421,0.0327 0.48948,0.0979 1.07685,0.21211 0.89738,0.14684 1.50107,0.27737 1.86002,0.39158 0.35895,0.11422 0.63632,0.29369 0.86474,0.55475 0.22842,0.26105 0.34264,0.58737 0.39158,1.01158 0.0327,0.4079 -0.0489,0.79948 -0.24474,1.17475 -0.19578,0.37527 -0.50579,0.68527 -0.93,0.93001 -0.44053,0.22842 -0.93001,0.37526 -1.48475,0.42421 -0.93001,0.0979 -1.66423,-0.0326 -2.18634,-0.37527 -0.5221,-0.34263 -0.88105,-0.86474 -1.09316,-1.61527 z m 12.31852,-1.71317 1.27264,-0.0327 c -0.0979,0.75054 -0.35895,1.37054 -0.83211,1.86002 -0.47317,0.48948 -1.10948,0.78316 -1.92528,0.91369 -1.0279,0.16316 -1.92528,-0.0163 -2.62686,-0.55474 -0.70159,-0.53842 -1.14212,-1.40317 -1.32159,-2.5616 -0.17948,-1.19106 -0.0489,-2.1537 0.47316,-2.92055 0.52211,-0.76685 1.27264,-1.20738 2.23528,-1.37054 0.94632,-0.14684 1.77843,0.0489 2.48002,0.60369 0.70158,0.55474 1.14211,1.40317 1.32159,2.57792 0.0163,0.0816 0.0326,0.17947 0.0489,0.32632 l -5.28636,0.83211 c 0.17947,0.76684 0.48948,1.35422 0.94632,1.69685 0.45685,0.34264 0.99527,0.48948 1.58265,0.39159 0.44053,-0.0653 0.78316,-0.24474 1.06053,-0.53843 0.27737,-0.29369 0.47316,-0.68527 0.57106,-1.22369 z m -4.24214,-1.32159 3.94845,-0.62001 c -0.14684,-0.58737 -0.37526,-1.01158 -0.66895,-1.27264 -0.45685,-0.4079 -0.97896,-0.57106 -1.58265,-0.47316 -0.55474,0.0816 -0.97895,0.34263 -1.30527,0.78316 -0.32632,0.44053 -0.45684,0.96264 -0.39158,1.58265 z m 11.97588,1.1258 c -0.34263,0.48947 -0.7179,0.84842 -1.07685,1.09316 -0.37526,0.24474 -0.78316,0.42422 -1.25632,0.53843 -0.76685,0.16316 -1.40317,0.11421 -1.90897,-0.16316 -0.50579,-0.27737 -0.81579,-0.7179 -0.94632,-1.30528 -0.0816,-0.32631 -0.0653,-0.66895 0.0326,-0.99527 0.0979,-0.32631 0.21211,-0.58737 0.44053,-0.81579 0.22843,-0.22843 0.47316,-0.42422 0.76685,-0.57106 0.22842,-0.13053 0.57106,-0.26106 1.01159,-0.42421 0.94632,-0.34264 1.61528,-0.63632 2.03949,-0.89738 -0.0326,-0.16316 -0.0489,-0.26105 -0.0653,-0.29369 -0.11421,-0.50579 -0.29368,-0.81579 -0.57105,-0.96263 -0.35895,-0.1958 -0.84843,-0.22843 -1.4358,-0.0979 -0.55475,0.13053 -0.94633,0.31 -1.17475,0.57106 -0.22842,0.26105 -0.34263,0.65264 -0.35895,1.17474 l -1.19106,0.0979 c 0,-0.50579 0.0653,-0.94633 0.24474,-1.30528 0.17947,-0.35894 0.45684,-0.66895 0.88106,-0.94632 0.42421,-0.27737 0.93,-0.47316 1.53369,-0.60369 0.60369,-0.14684 1.07685,-0.19579 1.48475,-0.13053 0.4079,0.0653 0.73422,0.17948 0.96264,0.35896 0.22842,0.17947 0.4079,0.40789 0.53842,0.70158 0.0979,0.19579 0.1958,0.57106 0.31001,1.09317 l 0.37527,1.58264 c 0.24473,1.10948 0.42421,1.77844 0.53842,2.07212 0.11421,0.29369 0.27737,0.53843 0.48948,0.78317 l -1.2237,0.27737 c -0.19579,-0.22843 -0.34263,-0.5058 -0.44053,-0.83211 z m -0.70158,-2.61055 c -0.39158,0.27737 -0.99527,0.58737 -1.8437,0.88106 -0.47316,0.19579 -0.78316,0.34263 -0.97895,0.47316 -0.1958,0.13053 -0.29369,0.31 -0.37527,0.50579 -0.0816,0.1958 -0.0816,0.39158 -0.0326,0.60369 0.0653,0.31 0.24473,0.53843 0.53842,0.70159 0.29369,0.16315 0.66895,0.19579 1.1258,0.0816 0.45685,-0.0979 0.84843,-0.27736 1.15843,-0.57105 0.31,-0.29369 0.50579,-0.62 0.60369,-1.01159 0.0653,-0.31 0.0327,-0.7179 -0.0816,-1.24001 z m 3.00213,0.78316 1.09316,-0.53842 c 0.21211,0.45684 0.47317,0.75053 0.84843,0.91369 0.37527,0.16316 0.83211,0.16316 1.35422,0.0163 0.52211,-0.16316 0.89738,-0.39159 1.09317,-0.68527 0.19579,-0.29369 0.24474,-0.58737 0.16316,-0.88106 -0.0816,-0.26106 -0.26106,-0.45685 -0.53842,-0.52211 -0.17948,-0.0653 -0.63633,-0.0653 -1.30528,-0.0653 -0.91369,0.0489 -1.56633,0.0489 -1.94159,-0.0163 -0.37527,-0.0653 -0.68527,-0.19579 -0.94633,-0.44053 -0.26105,-0.24474 -0.42421,-0.52211 -0.52211,-0.84843 -0.0979,-0.31 -0.11421,-0.60369 -0.0489,-0.91369 0.0653,-0.31 0.19579,-0.57106 0.39158,-0.8158 0.14684,-0.19579 0.32632,-0.35895 0.62,-0.55474 0.29369,-0.19579 0.62001,-0.34264 0.97896,-0.44053 0.53842,-0.16316 1.04422,-0.24474 1.50106,-0.19579 0.45685,0.0489 0.79948,0.16316 1.07685,0.37527 0.27737,0.2121 0.5058,0.5221 0.7179,0.93 l -1.09316,0.5058 c -0.16316,-0.35895 -0.39158,-0.57106 -0.70159,-0.70159 -0.31,-0.13052 -0.68527,-0.11421 -1.14211,0.0163 -0.52211,0.14684 -0.88106,0.35895 -1.06054,0.60369 -0.17947,0.24473 -0.22842,0.48947 -0.16315,0.71789 0.0489,0.16317 0.13052,0.27738 0.26105,0.37527 0.13053,0.0979 0.32632,0.16316 0.55474,0.17948 0.11421,0.0163 0.48948,0 1.09317,0 0.89737,-0.0326 1.53369,-0.0163 1.90896,0.0326 0.37527,0.0489 0.68527,0.16315 0.94632,0.37526 0.26106,0.21211 0.45685,0.52211 0.57106,0.91369 0.11421,0.39158 0.11421,0.79948 -0.0163,1.20738 -0.13053,0.4079 -0.37527,0.76685 -0.73422,1.07685 -0.39158,0.32632 -0.84843,0.55474 -1.37054,0.7179 -0.89737,0.26106 -1.63159,0.26106 -2.21896,0.0327 -0.58737,-0.22842 -1.0279,-0.66895 -1.37054,-1.37053 z m 11.73114,-4.07898 1.25633,-0.29368 c 0.0653,0.76684 -0.0816,1.41948 -0.44053,1.99054 -0.35895,0.57106 -0.93001,0.99527 -1.71317,1.28895 -0.97896,0.35896 -1.87633,0.35896 -2.67581,-0.0326 -0.79948,-0.39158 -1.40317,-1.14211 -1.81107,-2.23527 -0.42421,-1.1258 -0.45684,-2.12108 -0.11421,-2.9695 0.34263,-0.84843 0.99527,-1.43581 1.92528,-1.77844 0.89737,-0.32632 1.72948,-0.31 2.52896,0.0979 0.79949,0.40789 1.40318,1.15843 1.82739,2.26791 0.0326,0.0816 0.0653,0.17947 0.11421,0.31 l -5.0253,1.86002 c 0.32632,0.7179 0.75053,1.20738 1.27264,1.46843 0.52211,0.26106 1.06053,0.27737 1.61527,0.0816 0.42422,-0.16316 0.7179,-0.39158 0.93001,-0.73422 0.21211,-0.34263 0.32632,-0.76685 0.31,-1.32159 z m -4.4053,-0.44053 3.75267,-1.40316 c -0.26106,-0.53843 -0.57106,-0.9137 -0.91369,-1.1258 -0.53843,-0.29369 -1.07685,-0.34264 -1.64791,-0.13053 -0.52211,0.19579 -0.89738,0.53842 -1.1258,1.0279 -0.22842,0.48948 -0.26106,1.0279 -0.0653,1.63159 z m 6.7548,-0.27737 1.0279,-0.68527 c 0.26105,0.42422 0.57106,0.66896 0.96264,0.78317 0.39158,0.11421 0.84842,0.0326 1.3379,-0.17948 0.5058,-0.22842 0.8158,-0.50579 0.97896,-0.83211 0.16316,-0.32632 0.17947,-0.62 0.0489,-0.89738 -0.11421,-0.24473 -0.32631,-0.40789 -0.60368,-0.44052 -0.19579,-0.0327 -0.63632,0.0163 -1.30528,0.13052 -0.89737,0.17948 -1.53369,0.26106 -1.92527,0.24474 -0.39159,-0.0163 -0.70159,-0.0979 -0.99527,-0.29368 -0.29369,-0.1958 -0.48948,-0.45685 -0.63633,-0.76685 -0.13053,-0.29369 -0.2121,-0.60369 -0.17947,-0.9137 0.0326,-0.31 0.11421,-0.58737 0.26105,-0.84842 0.11422,-0.21211 0.29369,-0.42421 0.55475,-0.65264 0.26105,-0.22842 0.55474,-0.4079 0.89737,-0.57106 0.50579,-0.22842 0.99527,-0.35895 1.45212,-0.39158 0.45684,-0.0327 0.81579,0.0326 1.1258,0.21211 0.31,0.17947 0.57105,0.44053 0.84842,0.83211 l -1.0279,0.63632 c -0.19579,-0.32632 -0.45685,-0.50579 -0.78316,-0.58737 -0.32632,-0.0816 -0.68527,-0.0326 -1.1258,0.16316 -0.5058,0.24474 -0.8158,0.48948 -0.96264,0.75053 -0.14685,0.26105 -0.17948,0.52211 -0.0653,0.75053 0.0653,0.14684 0.17948,0.24474 0.31001,0.32632 0.14684,0.0653 0.34263,0.11421 0.57105,0.0979 0.13053,0 0.48948,-0.0653 1.09317,-0.16316 0.88106,-0.14685 1.51738,-0.21211 1.89265,-0.22843 0.37527,-0.0163 0.68527,0.0653 0.97895,0.24474 0.29369,0.17948 0.52211,0.44053 0.70159,0.83211 0.17947,0.37527 0.21211,0.76685 0.14684,1.19107 -0.0653,0.42421 -0.24474,0.81579 -0.57106,1.17474 -0.32631,0.35895 -0.75053,0.66895 -1.25632,0.89738 -0.84843,0.37526 -1.58265,0.48948 -2.18633,0.34263 -0.60369,-0.14684 -1.1258,-0.52211 -1.56633,-1.15843 z m 11.61693,-3.32845 -5.2211,-8.40269 1.10949,-0.70159 2.13739,3.45898 4.38897,-2.72476 -2.1537,-3.44266 1.10949,-0.68527 5.22109,8.4027 -1.10948,0.70158 -2.4637,-3.96476 -4.37267,2.70844 2.4637,3.96477 z m 6.03689,-8.06006 c -0.81579,-1.04422 -1.1258,-2.05581 -0.93001,-3.01844 0.16316,-0.79948 0.60369,-1.46844 1.30527,-2.00686 0.78317,-0.60369 1.59897,-0.83211 2.49634,-0.70159 0.89738,0.13053 1.69686,0.65264 2.39844,1.56633 0.55474,0.7179 0.89738,1.38685 0.99527,1.97423 0.0979,0.58737 0.0327,1.15843 -0.2121,1.72949 -0.24474,0.53842 -0.60369,1.01158 -1.10949,1.40316 -0.78316,0.60369 -1.61527,0.83212 -2.51265,0.70159 -0.89737,-0.13053 -1.69685,-0.68527 -2.43107,-1.64791 z m 0.99527,-0.76685 c 0.55474,0.73422 1.1258,1.17475 1.72949,1.28896 0.60369,0.11421 1.1258,0 1.61528,-0.37526 0.47316,-0.35896 0.71789,-0.83212 0.76684,-1.45212 0.0489,-0.62001 -0.22842,-1.28896 -0.79948,-2.03949 -0.53842,-0.7179 -1.10948,-1.1258 -1.71317,-1.24001 -0.60369,-0.11422 -1.1258,0.0163 -1.59896,0.37526 -0.48948,0.37527 -0.75053,0.84843 -0.78316,1.45212 -0.0327,0.60369 0.22842,1.25633 0.78316,1.99054 z m 6.05321,-2.88792 0.76685,-0.96263 c 0.37526,0.31 0.75053,0.45684 1.15842,0.44052 0.4079,-0.0163 0.8158,-0.22842 1.20738,-0.58737 0.4079,-0.37526 0.63633,-0.73421 0.68527,-1.09316 0.049,-0.35896 -0.0326,-0.63632 -0.24474,-0.86475 -0.17947,-0.19579 -0.42421,-0.29368 -0.70158,-0.22842 -0.19579,0.0163 -0.60369,0.2121 -1.20738,0.52211 -0.79948,0.45685 -1.37053,0.7179 -1.7458,0.83211 -0.37527,0.11421 -0.7179,0.13053 -1.04422,0.0326 -0.32632,-0.0979 -0.62,-0.27737 -0.84843,-0.53842 -0.21211,-0.22843 -0.37526,-0.48948 -0.45684,-0.79948 -0.0816,-0.31001 -0.0653,-0.60369 0,-0.89738 0.0489,-0.24474 0.14684,-0.48948 0.32631,-0.78316 0.17948,-0.29369 0.39159,-0.57106 0.66896,-0.83211 0.40789,-0.37527 0.84842,-0.63632 1.27264,-0.8158 0.42421,-0.17948 0.78316,-0.22842 1.12579,-0.16316 0.34264,0.0653 0.68528,0.26106 1.06054,0.53842 l -0.76685,0.93001 c -0.29369,-0.24474 -0.58737,-0.35895 -0.93,-0.32632 -0.34264,0.0326 -0.66896,0.1958 -1.02791,0.52211 -0.4079,0.37527 -0.62,0.70159 -0.68527,1.01159 -0.0653,0.31 0.0163,0.53843 0.17948,0.7179 0.11421,0.11421 0.22842,0.17948 0.39158,0.21211 0.16316,0.0326 0.35895,0 0.57106,-0.0816 0.11421,-0.0326 0.45685,-0.21211 0.99527,-0.48948 0.78316,-0.42421 1.35422,-0.66895 1.71317,-0.79948 0.35895,-0.13053 0.68527,-0.16316 1.0279,-0.0816 0.34264,0.0816 0.63632,0.26106 0.9137,0.57106 0.27737,0.29369 0.44053,0.65264 0.50579,1.07685 0.0653,0.42421 0.0163,0.86474 -0.17948,1.30527 -0.19579,0.45685 -0.50579,0.86475 -0.91369,1.24001 -0.68527,0.63633 -1.35422,0.96264 -1.97422,1.01159 -0.62001,0.0489 -1.2237,-0.14685 -1.8437,-0.62001 z m 9.18586,-1.97422 -7.40743,-6.57532 0.7179,-0.81579 0.70159,0.62 c -0.11421,-0.45685 -0.11421,-0.84843 -0.0163,-1.22369 0.0979,-0.37527 0.27737,-0.73422 0.58737,-1.07685 0.4079,-0.45685 0.89738,-0.75054 1.4358,-0.89738 0.53843,-0.14684 1.1258,-0.11421 1.71318,0.0816 0.58737,0.19579 1.14211,0.53843 1.6479,0.97896 0.55474,0.48948 0.96264,1.0279 1.2237,1.61527 0.26105,0.58737 0.34263,1.17475 0.24474,1.76212 -0.11422,0.58738 -0.34264,1.09317 -0.71791,1.50107 -0.26105,0.31 -0.57105,0.52211 -0.91369,0.65264 -0.34263,0.13052 -0.66895,0.19578 -1.01158,0.17947 l 2.61055,2.30054 z m -3.98108,-4.99267 c 0.70158,0.62 1.3379,0.93 1.92527,0.94632 0.58738,0.0163 1.04422,-0.17948 1.38686,-0.57106 0.35895,-0.40789 0.50579,-0.91369 0.4079,-1.50106 -0.0979,-0.58738 -0.48948,-1.22369 -1.20738,-1.86001 -0.68527,-0.60369 -1.32159,-0.9137 -1.90896,-0.93001 -0.58738,-0.0163 -1.06054,0.14684 -1.41949,0.55474 -0.32632,0.37527 -0.45685,0.89738 -0.35895,1.51738 0.0979,0.62 0.48947,1.24001 1.17475,1.8437 z m 0.40789,-8.01112 -1.09317,-0.84843 0.73422,-0.96264 1.10949,0.84843 z m 6.75479,5.20478 -5.69425,-4.38898 0.73422,-0.96264 5.69425,4.38898 z m 2.5616,-5.46583 0.97896,0.47316 c -0.13053,0.32632 -0.27737,0.60369 -0.42421,0.8158 -0.26106,0.35895 -0.5058,0.60368 -0.76686,0.73421 -0.24473,0.13053 -0.50579,0.16316 -0.75052,0.11421 -0.24475,-0.0489 -0.65264,-0.27737 -1.25633,-0.70158 l -3.41003,-2.33318 -0.50579,0.73422 -0.78317,-0.52211 0.5058,-0.75053 -1.46844,-0.99527 0.0979,-1.40317 2.0558,1.40317 0.70159,-1.01159 0.78316,0.52211 -0.70158,1.0279 3.47529,2.38212 c 0.27737,0.1958 0.47316,0.31001 0.58737,0.32632 0.11421,0.0163 0.21211,0.0163 0.31001,-0.0326 0.0979,-0.049 0.2121,-0.16316 0.31,-0.31 0.0816,-0.0979 0.16316,-0.26105 0.26105,-0.47316 z m 3.21424,-5.18847 c 0.11421,0.58738 0.14684,1.09317 0.0653,1.5337 -0.0653,0.44053 -0.19579,0.86475 -0.44053,1.27264 -0.39158,0.70159 -0.83211,1.1258 -1.38685,1.32159 -0.55474,0.19579 -1.07685,0.11421 -1.61528,-0.17947 -0.29368,-0.16316 -0.53842,-0.39159 -0.7179,-0.68527 -0.17947,-0.29369 -0.27737,-0.57106 -0.29368,-0.88106 -0.0163,-0.31001 0,-0.63632 0.0816,-0.96264 0.0653,-0.24474 0.17947,-0.58737 0.37526,-1.0279 0.37527,-0.93001 0.62001,-1.61528 0.70159,-2.10476 -0.14685,-0.0816 -0.24474,-0.14684 -0.26106,-0.16316 -0.44053,-0.24473 -0.79948,-0.31 -1.09316,-0.2121 -0.39159,0.13052 -0.75054,0.47316 -1.04422,0.99527 -0.27737,0.50579 -0.4079,0.91369 -0.35896,1.25632 0.0489,0.34264 0.24475,0.68527 0.62001,1.04422 l -0.73421,0.96264 c -0.37527,-0.34263 -0.65264,-0.70158 -0.79949,-1.07685 -0.14684,-0.37526 -0.19579,-0.78316 -0.11421,-1.27264 0.0816,-0.48948 0.27738,-1.01159 0.58738,-1.55001 0.31,-0.53843 0.58737,-0.93001 0.91369,-1.19107 0.32632,-0.26105 0.62,-0.40789 0.89737,-0.45684 0.27737,-0.049 0.58738,-0.0327 0.89738,0.0653 0.21211,0.0653 0.53843,0.22843 1.01159,0.5058 l 1.41948,0.79947 c 0.97896,0.55475 1.61528,0.86475 1.90896,0.97896 0.29369,0.11421 0.58738,0.16316 0.89738,0.16316 l -0.62,1.09317 c -0.29369,-0.0163 -0.58738,-0.0816 -0.89738,-0.22843 z m -2.41476,-1.24 c -0.049,0.47316 -0.24473,1.12579 -0.57106,1.95791 -0.17947,0.47316 -0.27736,0.81579 -0.31,1.04421 -0.0326,0.22843 0.0163,0.44053 0.11422,0.62001 0.0979,0.17947 0.22842,0.32632 0.40789,0.42421 0.29369,0.16316 0.58738,0.19579 0.89738,0.0816 0.31,-0.11421 0.58737,-0.37526 0.8158,-0.78316 0.22842,-0.4079 0.35895,-0.8158 0.34263,-1.24001 -0.0163,-0.42422 -0.11421,-0.79948 -0.32632,-1.1258 -0.17947,-0.26106 -0.50579,-0.50579 -0.97896,-0.78317 z m 4.73162,-1.24002 -9.0227,-4.11161 0.50579,-1.09316 9.0227,4.11161 z"
   id="path10"
   style="stroke-width:0.0163159" />

 <path
   fill="#ffffff"
   stroke="none"
   d="m 48.7109,185.23076 c -0.11421,-0.31 -0.11421,-0.58737 -0.0163,-0.8321 0.13053,-0.24475 0.35895,-0.44054 0.66896,-0.57106 0.34263,-0.13053 0.63632,-0.14685 0.88105,-0.0489 0.27738,0.0979 0.47317,0.31 0.58738,0.60369 0.13053,0.31 0.11421,0.57106 -0.0163,0.81579 -0.11421,0.26106 -0.34263,0.44053 -0.66895,0.57106 -0.34264,0.13053 -0.62001,0.16316 -0.88106,0.049 -0.26106,-0.11421 -0.44053,-0.31 -0.55474,-0.58738 z m 0.99527,2.48002 c -0.11421,-0.29368 -0.14685,-0.58737 -0.0163,-0.83211 0.13053,-0.24474 0.35895,-0.44052 0.66895,-0.57105 0.34264,-0.13053 0.62001,-0.14685 0.88106,-0.0489 0.26106,0.0979 0.44053,0.31 0.57106,0.62 0.11421,0.29369 0.13053,0.55475 0,0.8158 -0.13053,0.26106 -0.34263,0.42421 -0.66895,0.55474 -0.32632,0.13053 -0.60369,0.16316 -0.88106,0.049 -0.27737,-0.11422 -0.44053,-0.29369 -0.55474,-0.58738 z m -9.74061,3.45898 c -0.55474,-1.35422 -0.66895,-2.51265 -0.35895,-3.52424 0.31001,-1.01159 1.04422,-1.7458 2.15371,-2.20265 0.79948,-0.34263 1.51738,-0.44053 2.21896,-0.29369 0.70158,0.14685 1.30527,0.48948 1.86001,1.01159 0.55475,0.52211 0.97896,1.19107 1.33791,2.02317 l 0.16316,0.39159 0.70158,-0.29369 0.89738,2.17002 -6.1511,2.5616 0.75053,1.82738 c 0.0163,0.0489 0.0163,0.0816 -0.0326,0.0979 l -1.61528,0.66895 c -0.0326,0.0163 -0.0816,0 -0.0979,-0.0489 z m 1.92528,-0.32632 3.70372,-1.5337 -0.16316,-0.37526 c -0.26106,-0.65264 -0.62001,-1.09317 -1.10949,-1.32159 -0.48947,-0.22842 -1.0279,-0.21211 -1.66422,0.0489 -0.55474,0.22842 -0.91369,0.60369 -1.09317,1.07685 -0.17947,0.47316 -0.11421,1.04422 0.14685,1.69685 z m -2.43107,7.96217 c -0.14684,-0.29369 -0.17947,-0.58737 -0.0816,-0.84843 0.0979,-0.26105 0.29369,-0.45684 0.60369,-0.62 0.29369,-0.14685 0.58737,-0.19579 0.86474,-0.13053 0.26106,0.0816 0.48948,0.26105 0.63632,0.55474 0.14685,0.29369 0.16316,0.55474 0.0653,0.83211 -0.0816,0.24474 -0.29369,0.44053 -0.62001,0.60369 -0.31,0.16316 -0.60369,0.21211 -0.86474,0.13053 -0.26106,-0.0816 -0.45685,-0.26105 -0.60369,-0.52211 z m 1.22369,2.36581 c -0.14684,-0.27737 -0.17947,-0.57106 -0.0816,-0.83212 0.0979,-0.26105 0.29369,-0.45684 0.60369,-0.62 0.29369,-0.14684 0.58738,-0.19579 0.86475,-0.13053 0.26105,0.0816 0.48948,0.26106 0.63632,0.55475 0.14684,0.29368 0.14684,0.55474 0.0653,0.81579 -0.0979,0.26106 -0.31,0.45685 -0.62,0.62001 -0.31001,0.16316 -0.57106,0.2121 -0.84843,0.13052 -0.27737,-0.0816 -0.47316,-0.26105 -0.62001,-0.53842 z m 1.20738,-5.40057 c -0.0326,-0.049 -0.0163,-0.0979 0.0326,-0.11421 l 1.55002,-0.79948 c 0.0489,-0.0163 0.0816,0 0.0979,0.0489 l 1.25633,2.46371 5.25372,-2.69213 1.07685,2.10475 -6.95058,3.54056 z m 1.02791,9.85481 c -0.27738,-0.45684 -0.48948,-0.91369 -0.60369,-1.37053 -0.11422,-0.45685 -0.14685,-0.97896 -0.13053,-1.56633 l 1.81107,0.0163 c -0.0163,0.34263 0,0.58738 0.0653,0.8158 0.0653,0.22842 0.14684,0.45684 0.29369,0.7179 0.22842,0.35895 0.53842,0.55474 0.93,0.62001 0.4079,0.0653 0.83212,-0.0327 1.24001,-0.27738 l 6.83637,-4.04635 1.19107,2.00686 -6.91795,4.11161 c -0.93001,0.55475 -1.82739,0.71791 -2.67581,0.53843 -0.84843,-0.17948 -1.5337,-0.70158 -2.03949,-1.56633 z m 7.86427,1.90896 3.14897,4.22583 c 0.31,-0.37527 0.58737,-0.7179 0.83211,-1.06054 0.24474,-0.34263 0.44053,-0.66895 0.57106,-0.97895 0.29369,-0.60369 0.47316,-1.2237 0.53842,-1.87633 0.0653,-0.65264 0,-1.32159 -0.17947,-2.05581 l 2.28423,-0.60368 c 0.39158,1.45211 0.37526,2.83896 -0.0489,4.2095 -0.42421,1.37054 -1.28896,2.79002 -2.59423,4.25845 l 1.24001,1.66423 c 0.0326,0.0326 0.0326,0.0653 0,0.0979 l -1.40317,1.04422 c -0.0326,0.0326 -0.0816,0.0163 -0.11421,-0.0163 l -5.79215,-7.76637 z m 4.50319,9.20218 c -0.0326,-0.0326 -0.0163,-0.0816 0.0163,-0.11421 l 1.25632,-1.19106 c 0.0489,-0.0326 0.0816,-0.0326 0.11422,0.0163 l 1.27264,1.3379 4.29108,-4.04635 1.61528,1.69686 -2.00686,1.89264 c 2.07212,-0.62 3.75266,-0.26105 5.04162,1.10949 0.88106,0.93 1.32159,1.87633 1.27264,2.82265 -0.0489,0.94632 -0.58737,1.90896 -1.61527,2.88792 l -1.37054,1.28896 1.40317,1.48474 c 0.0326,0.0327 0.049,0.0653 0,0.0979 l -1.25633,1.20738 c -0.0326,0.0326 -0.0816,0.0326 -0.11421,0 z m 8.27217,6.00426 1.40317,-1.3379 c 0.55474,-0.52211 0.86475,-1.02791 0.88106,-1.5337 0.0163,-0.50579 -0.21211,-1.04422 -0.7179,-1.56633 -0.99527,-1.04422 -2.5616,-1.25632 -4.66635,-0.63632 l -0.89738,0.83212 z m 1.82739,4.66635 c -0.0326,-0.0326 -0.0326,-0.0816 0,-0.11421 l 1.15843,-1.30527 c 0.0326,-0.0326 0.0653,-0.0326 0.0979,0 l 1.48475,1.30527 6.67321,-7.52164 1.76212,1.55002 -7.94585,8.95744 z m 13.28115,-4.34003 1.82739,1.4358 -7.39111,9.39797 -1.82739,-1.4358 z m 16.59329,13.36274 c -0.29368,-0.14684 -0.45684,-0.34264 -0.53842,-0.62001 -0.0816,-0.27737 -0.0326,-0.55474 0.11421,-0.86474 0.17947,-0.32632 0.39158,-0.52211 0.63632,-0.60369 0.26106,-0.11421 0.53842,-0.0816 0.83211,0.0816 0.29369,0.14684 0.47316,0.35895 0.53843,0.62001 0.0653,0.26105 0.0327,0.55474 -0.13053,0.86474 -0.16316,0.31 -0.39158,0.50579 -0.65264,0.60369 -0.26105,0.0979 -0.52211,0.0653 -0.79948,-0.0816 z m -13.15063,7.8969 c -0.76685,-0.42421 -1.3379,-0.96263 -1.72948,-1.61527 -0.37527,-0.63632 -0.55475,-1.32159 -0.52211,-2.07212 0.0163,-0.73422 0.24473,-1.48475 0.66895,-2.2516 0.27737,-0.52211 0.63632,-1.01159 1.06053,-1.48475 0.42422,-0.47316 0.86475,-0.86474 1.32159,-1.15843 l 1.81107,0.99527 c -0.4079,0.4079 -0.79948,0.86474 -1.19106,1.35422 -0.39158,0.48948 -0.70159,0.99527 -0.96264,1.45212 -0.37527,0.66895 -0.5058,1.28896 -0.39158,1.87633 0.11421,0.57106 0.44053,1.0279 0.99527,1.33791 l 0.42421,0.22842 c 0.70159,0.37527 1.33791,0.47316 1.86002,0.29369 0.57105,-0.1958 1.04421,-0.65264 1.41948,-1.35423 l 3.49161,-6.26531 2.03949,1.1258 -1.33791,2.41476 c 1.79475,-1.2237 3.50792,-1.37054 5.13952,-0.47317 1.1258,0.63632 1.82738,1.40317 2.07212,2.31686 0.24474,0.91369 0,1.99054 -0.68527,3.21424 l -1.82738,3.31213 -7.16269,-3.98108 c -0.66895,1.06053 -1.50107,1.66422 -2.49634,1.8437 -0.99527,0.17947 -2.12107,-0.0653 -3.37739,-0.76685 z m 12.51431,0.45685 0.94633,-1.68054 c 0.35895,-0.66895 0.50579,-1.25632 0.35895,-1.7458 -0.14685,-0.48948 -0.5058,-0.9137 -1.15843,-1.27265 -1.24001,-0.68526 -2.79003,-0.40789 -4.63373,0.79949 l -0.60368,1.07684 z m 8.8106,-6.869 2.13738,0.91369 -4.68266,10.99693 -2.13739,-0.91369 z m 4.4053,14.4559 -0.0816,0.24474 c -0.37527,1.0279 -0.93001,1.71317 -1.71317,2.12107 -0.78317,0.4079 -1.64791,0.42421 -2.57792,0.0816 -0.50579,-0.17948 -0.94632,-0.4079 -1.33791,-0.68527 -0.39158,-0.27737 -0.73421,-0.65263 -1.10948,-1.1258 l 1.41949,-1.1258 c 0.19579,0.26106 0.39158,0.45685 0.57105,0.58738 0.17948,0.13052 0.4079,0.26105 0.68527,0.35895 0.39158,0.14684 0.76685,0.0979 1.10949,-0.0979 0.35894,-0.22842 0.62,-0.57106 0.78316,-1.01159 l 2.69213,-7.47269 2.20265,0.79948 -1.99054,5.54742 1.90896,0.70158 c 0.0489,0.0163 0.0816,0.0326 0.0653,0.0816 l -0.60369,1.64791 c -0.0163,0.0489 -0.049,0.0653 -0.0979,0.0489 z m 2.07212,0.75053 c -0.0489,-0.0163 -0.0653,-0.0489 -0.0489,-0.0979 l 0.47316,-1.68054 c 0.0163,-0.0489 0.049,-0.0489 0.0979,-0.0326 l 1.71317,0.48947 c -0.0979,-0.7179 -0.0326,-1.4358 0.17947,-2.20265 0.13053,-0.44053 0.32632,-0.88106 0.62001,-1.35422 0.29368,-0.47316 0.60369,-0.86474 0.93001,-1.15843 0.57105,-0.14684 1.15843,-0.19579 1.7458,-0.19579 0.60369,0 1.09317,0.0653 1.50107,0.17948 0.68526,0.19579 1.27263,0.52211 1.76211,0.97895 0.48948,0.45685 0.78317,1.01159 0.94633,1.63159 0.16316,0.62001 0.14684,1.30528 -0.0653,2.02318 -0.11421,0.39158 -0.26105,0.73422 -0.44053,1.06053 -0.17947,0.32632 -0.4079,0.60369 -0.66895,0.83212 -0.55474,0.47316 -1.19106,0.81579 -1.90896,0.96264 -0.7179,0.14684 -1.46844,0.0979 -2.21897,-0.11422 z m 4.42161,-2.62686 c -0.14684,0.5058 -0.19579,1.14211 -0.14684,1.87633 l 0.55474,0.16316 c 0.4079,0.11421 0.8158,0.13053 1.19106,0.0326 0.37527,-0.0979 0.70159,-0.27737 0.97896,-0.53842 0.27737,-0.26106 0.47316,-0.58737 0.58737,-0.97896 0.14685,-0.53842 0.14685,-0.97895 -0.0327,-1.38685 -0.17947,-0.4079 -0.47316,-0.65264 -0.89737,-0.78316 -0.47317,-0.13053 -0.97896,-0.13053 -1.5337,0.0327 -0.31,0.47316 -0.53842,1.01159 -0.70158,1.58264 z m 8.68007,-6.28163 0.89738,0.0489 c -0.16316,-0.16316 -0.31001,-0.32632 -0.39159,-0.53843 -0.0816,-0.2121 -0.0979,-0.42421 -0.0489,-0.66895 0.0979,-0.42421 0.32632,-0.73421 0.68527,-0.91369 0.35894,-0.17948 0.79947,-0.22842 1.30527,-0.11421 0.52211,0.11421 0.91369,0.31 1.20738,0.57105 l -0.48948,0.71791 c -0.21211,-0.1958 -0.47316,-0.32632 -0.78317,-0.39159 -0.2121,-0.0489 -0.42421,-0.0163 -0.58737,0.0816 -0.16316,0.0979 -0.26105,0.27738 -0.31,0.48948 -0.0326,0.16316 -0.0326,0.31001 0.0326,0.45685 0.0653,0.14684 0.14685,0.24474 0.27737,0.34263 0.42422,0.0163 0.73422,0.0326 0.97896,0.0653 0.24473,0.0326 0.42421,0.0326 0.58737,0.0816 l -0.21211,0.88106 c -0.17947,-0.0327 -0.44053,-0.0489 -0.78316,-0.0979 -0.34264,-0.049 -0.68527,-0.0816 -1.06053,-0.13053 -0.35896,-0.0326 -0.68527,-0.0653 -0.96264,-0.0979 -0.27738,0 -0.45685,-0.0327 -0.52211,-0.0163 z m 0.68527,10.88272 -0.34263,-8.46796 2.38212,0.50579 0.21211,8.43533 z m 3.91582,0.37527 1.86001,-9.88745 2.31687,0.44053 -1.87633,9.88745 2.02317,0.37526 c 0.049,0.0163 0.0653,0.0326 0.049,0.0816 l -0.31001,1.71317 c -0.0163,0.049 -0.0326,0.0816 -0.0816,0.0653 l -10.98061,-2.07212 0.34263,-1.86002 z m 4.0953,2.69212 c -0.0489,0 -0.0816,-0.0326 -0.0653,-0.0816 l 0.21211,-1.72949 c 0,-0.0489 0.049,-0.0653 0.0979,-0.0653 l 1.95791,0.24474 1.24,-9.98534 2.33318,0.29369 -1.48475,11.86167 z m 22.22228,-0.57105 c 0.0489,0 0.0816,0.0163 0.0816,0.0653 l -0.0163,1.7458 c 0,0.0489 -0.0326,0.0816 -0.0816,0.0816 l -2.85529,-0.0326 c -0.0489,0 -0.0816,-0.0327 -0.0816,-0.0816 l 0.0163,-1.7458 c 0,-0.0489 0.0326,-0.0653 0.0816,-0.0653 z m -6.20005,5.61267 c -0.70159,-0.0163 -1.32159,-0.0816 -1.8437,-0.19579 -0.50579,-0.11421 -1.01159,-0.31 -1.48475,-0.60369 l 0.93001,-1.71317 c 0.42421,0.22842 0.83211,0.39158 1.20738,0.48948 0.37526,0.0979 0.76684,0.14684 1.17474,0.14684 0.60369,0 1.06054,-0.14684 1.38686,-0.47316 0.31,-0.32632 0.48947,-0.76685 0.48947,-1.33791 v -0.0816 l -1.55001,-0.0163 c -1.1258,-0.0163 -1.97422,-0.32632 -2.57791,-0.97895 -0.60369,-0.65264 -0.89738,-1.55002 -0.88106,-2.72476 0,-0.89738 0.24473,-1.6316 0.68526,-2.2516 0.44053,-0.62 1.02791,-1.07685 1.79476,-1.38685 0.76684,-0.31001 1.63159,-0.44053 2.57791,-0.44053 l 2.39844,0.0326 -0.0979,7.84795 c -0.0163,1.19107 -0.39158,2.10476 -1.12579,2.74108 -0.73422,0.63632 -1.76212,0.96264 -3.08371,0.94632 z m 1.87633,-5.66162 0.0489,-4.01372 h -0.50579 c -0.66896,-0.0163 -1.19107,0.17948 -1.56633,0.55474 -0.37527,0.37527 -0.58738,0.89738 -0.58738,1.58265 -0.0163,1.24001 0.48948,1.86001 1.5337,1.86001 z m 6.49373,5.38425 c -0.32631,0.0163 -0.60369,-0.0653 -0.79947,-0.26105 -0.1958,-0.1958 -0.29369,-0.45685 -0.31001,-0.79949 -0.0163,-0.34263 0.0653,-0.62 0.22843,-0.84842 0.19578,-0.21211 0.44053,-0.32632 0.76684,-0.34263 0.32632,-0.0163 0.57106,0.0653 0.78317,0.26105 0.19579,0.19579 0.29368,0.45684 0.31,0.81579 0.0163,0.35896 -0.0489,0.63632 -0.24474,0.84843 -0.17947,0.21211 -0.42421,0.31 -0.73422,0.32632 z m 2.67582,-0.13053 c -0.32632,0.0163 -0.60369,-0.0653 -0.79949,-0.26105 -0.19578,-0.19579 -0.29368,-0.47316 -0.31,-0.8158 -0.0163,-0.34263 0.0653,-0.62 0.22843,-0.83211 0.17947,-0.2121 0.44053,-0.34263 0.76684,-0.35895 0.32632,-0.0163 0.57106,0.0816 0.78317,0.27737 0.19579,0.19579 0.27737,0.47316 0.29369,0.8158 0.0326,0.34263 -0.049,0.62 -0.22843,0.83211 -0.17947,0.21211 -0.42421,0.32632 -0.73421,0.34263 z m -4.71531,-3.31213 c -0.0489,0 -0.0816,-0.0326 -0.0816,-0.0816 l -0.0979,-1.7458 c 0,-0.049 0.0327,-0.0653 0.0816,-0.0653 l 2.44739,-0.13053 -0.31001,-5.89005 2.3495,-0.13052 0.29368,5.90636 2.34949,-0.13053 c 0.0653,0 0.0816,0.0163 0.0816,0.0653 l 0.0979,1.74581 c 0,0.0489 -0.0163,0.0816 -0.0816,0.0816 z m 7.17901,-0.37526 c -0.0489,0 -0.0816,-0.0326 -0.0816,-0.0816 l -0.17948,-1.72949 c 0,-0.049 0.0327,-0.0653 0.0816,-0.0816 l 1.95791,-0.17947 -0.96264,-10.01798 2.33318,-0.22842 1.15843,11.8943 z m 16.23434,-4.20951 c 0.049,-0.0163 0.0816,0 0.0816,0.049 l 0.29368,1.71317 c 0.0163,0.0489 -0.0163,0.0979 -0.0653,0.0979 l -2.80634,0.47316 c -0.0489,0.0163 -0.0979,-0.0163 -0.0979,-0.0653 l -0.29369,-1.71317 c 0,-0.0489 0.0163,-0.0653 0.0653,-0.0816 z m -5.10688,6.62426 c -0.68527,0.11422 -1.30528,0.14685 -1.8437,0.13053 -0.53843,-0.0163 -1.06054,-0.13053 -1.58265,-0.32632 l 0.62001,-1.8437 c 0.45684,0.14685 0.88106,0.22843 1.27264,0.26106 0.39158,0.0326 0.76685,0 1.17475,-0.0653 0.60369,-0.0979 1.01158,-0.34263 1.28895,-0.7179 0.24474,-0.37526 0.34264,-0.83211 0.24474,-1.40316 l -0.0163,-0.0816 -1.53369,0.26106 c -1.10949,0.19579 -2.00686,0.0489 -2.70845,-0.48948 -0.70158,-0.53842 -1.15842,-1.38685 -1.35422,-2.54528 -0.14684,-0.88106 -0.0489,-1.66422 0.27737,-2.33318 0.32632,-0.66895 0.83212,-1.24001 1.51738,-1.68054 0.68527,-0.44053 1.51738,-0.73421 2.44739,-0.88106 l 2.36581,-0.40789 1.30527,7.73374 c 0.21211,1.17474 0,2.13738 -0.60368,2.90423 -0.60369,0.76685 -1.56633,1.25633 -2.87161,1.48475 z m 0.84842,-5.90636 -0.66895,-3.94845 -0.50579,0.0816 c -0.65264,0.11421 -1.14212,0.37526 -1.45212,0.81579 -0.31,0.44053 -0.4079,0.99527 -0.29369,1.68054 0.21211,1.2237 0.8158,1.72949 1.8437,1.55001 z m 7.04848,4.2095 c -0.31,0.0653 -0.60369,0.0327 -0.83211,-0.13052 -0.22842,-0.16316 -0.37527,-0.39158 -0.45685,-0.7179 -0.0816,-0.34263 -0.0489,-0.63632 0.0816,-0.88106 0.14685,-0.22842 0.37527,-0.4079 0.68527,-0.47316 0.32632,-0.0816 0.58737,-0.0489 0.83211,0.11421 0.21211,0.16316 0.35895,0.4079 0.44053,0.75053 0.0816,0.35895 0.0653,0.63632 -0.0816,0.88106 -0.14684,0.22843 -0.35895,0.39158 -0.66895,0.45684 z m 2.61055,-0.60368 c -0.32632,0.0653 -0.60369,0.0326 -0.83211,-0.13053 -0.22843,-0.16316 -0.37527,-0.39158 -0.45685,-0.73422 -0.0816,-0.32631 -0.0489,-0.62 0.0816,-0.86474 0.14684,-0.24474 0.37527,-0.4079 0.68527,-0.48948 0.32632,-0.0653 0.58737,-0.0163 0.8158,0.13053 0.22842,0.16316 0.37526,0.42422 0.44052,0.75053 0.0816,0.32632 0.0653,0.62001 -0.0816,0.86474 -0.14684,0.24474 -0.35894,0.39159 -0.65263,0.47317 z m -4.97636,-2.48002 c -0.0489,0.0163 -0.0816,-0.0163 -0.0979,-0.0653 l -0.39159,-1.69685 c 0,-0.0489 0.0327,-0.0653 0.0653,-0.0816 l 2.69213,-0.62001 -1.3216,-5.75951 2.28424,-0.52211 1.7458,7.60321 z m 19.93806,-5.85742 -7.42375,2.57792 -0.53842,-1.56633 1.72948,-3.60582 c 0.35895,-0.73422 0.63633,-1.3379 0.83212,-1.82738 0.19579,-0.48948 0.31,-0.91369 0.35895,-1.27264 0.049,-0.35895 -0.0163,-0.7179 -0.13053,-1.06054 -0.14685,-0.42421 -0.37527,-0.70158 -0.68527,-0.83211 -0.31,-0.13053 -0.65263,-0.11421 -1.04422,0.0163 -0.4079,0.14685 -0.76685,0.35895 -1.09316,0.68527 -0.32633,0.32632 -0.63633,0.75053 -0.94633,1.2237 l -1.71317,-1.01159 c 0.21211,-0.37527 0.45685,-0.73421 0.7179,-1.07685 0.26106,-0.34264 0.60369,-0.66895 0.99527,-0.97896 0.39159,-0.31 0.93001,-0.57105 1.55001,-0.78316 0.70159,-0.24474 1.33791,-0.31 1.92528,-0.22842 0.58738,0.0816 1.09317,0.29369 1.51738,0.63632 0.42422,0.34263 0.7179,0.76685 0.9137,1.32159 0.19579,0.58737 0.26105,1.14211 0.19579,1.71317 -0.0653,0.57106 -0.22843,1.15843 -0.5058,1.77843 -0.27737,0.62001 -0.62,1.35423 -1.04422,2.1537 l -0.93001,1.76213 0.0327,0.0816 4.63372,-1.59896 z m 4.7153,-11.50272 c 0.31,0.7179 0.34263,1.35422 0.0979,1.97423 -0.24474,0.62 -0.63632,1.14211 -1.19106,1.55001 l 0.0163,0.049 c 0.86475,-0.26106 1.59896,-0.27737 2.20265,-0.0653 0.60369,0.21211 1.06054,0.68527 1.33791,1.35422 0.26105,0.60369 0.37526,1.19107 0.27737,1.81107 -0.0979,0.62 -0.37527,1.17475 -0.88106,1.71317 -0.48948,0.53843 -1.20738,1.01159 -2.18633,1.4358 -1.10949,0.48948 -2.17002,0.71791 -3.19792,0.71791 l -0.79949,-1.84371 c 0.52211,0.0326 1.06054,0 1.59896,-0.0979 0.53843,-0.0979 1.01159,-0.22842 1.41949,-0.4079 0.78317,-0.34263 1.28896,-0.7179 1.48475,-1.1258 0.19579,-0.4079 0.17947,-0.84843 -0.0327,-1.3379 -0.13053,-0.29369 -0.31001,-0.5058 -0.53843,-0.63632 -0.22842,-0.13053 -0.53842,-0.17948 -0.94632,-0.11421 -0.4079,0.0653 -0.93001,0.22842 -1.58265,0.50579 l -0.78316,0.32632 -0.7179,-1.66423 0.78316,-0.35895 c 0.63633,-0.26105 1.10949,-0.53842 1.38686,-0.79948 0.27737,-0.26105 0.42421,-0.5221 0.45684,-0.78316 0.0326,-0.26105 -0.0163,-0.53843 -0.13052,-0.79948 -0.16316,-0.35895 -0.37527,-0.60369 -0.70159,-0.7179 -0.32632,-0.11421 -0.75053,-0.049 -1.27264,0.17947 -0.48948,0.21211 -0.88106,0.48948 -1.17475,0.8158 -0.29368,0.32632 -0.52211,0.62 -0.70158,0.89737 l -1.64791,-1.06053 c 0.27737,-0.47316 0.63632,-0.89738 1.10948,-1.33791 0.47316,-0.44052 1.04422,-0.81579 1.79476,-1.14211 1.06053,-0.45685 2.00685,-0.62 2.80633,-0.45685 0.79948,0.16316 1.38686,0.63633 1.71318,1.41949 z m 15.38591,5.85741 c -0.53843,0.34264 -1.10948,0.5058 -1.68054,0.48948 -0.55474,-0.0163 -1.09317,-0.19579 -1.61528,-0.50579 -0.50579,-0.31 -0.93,-0.75053 -1.28896,-1.32159 -0.55474,-0.84843 -0.94632,-1.79475 -1.22369,-2.83897 l 1.77843,-1.1258 c 0.11422,0.44053 0.26106,0.83211 0.44053,1.19106 0.17948,0.35895 0.4079,0.78317 0.71791,1.25633 0.19579,0.31 0.44052,0.55474 0.76684,0.7179 0.29369,0.16316 0.62001,0.24474 0.97896,0.26106 0.35895,0.0163 0.66895,-0.0816 0.94632,-0.24475 l 2.28423,-1.45211 c 0.35895,-0.22842 0.65264,-0.44053 0.91369,-0.66896 0.26106,-0.22842 0.45685,-0.40789 0.55474,-0.62 0.0979,-0.21211 0.0816,-0.4079 -0.0489,-0.60369 -0.19578,-0.31 -0.65263,-0.34263 -1.35422,-0.11421 -0.86474,0.31 -1.53369,0.39158 -2.03949,0.24474 -0.50579,-0.14684 -0.89737,-0.47316 -1.22369,-0.99527 -0.31,-0.48948 -0.45685,-1.07685 -0.42421,-1.79475 0.0163,-0.48948 0.0979,-0.94633 0.24474,-1.4358 0.14684,-0.48948 0.32631,-0.89738 0.58737,-1.28896 0.26105,-0.39158 0.52211,-0.68527 0.83211,-0.88106 0.14685,-0.0979 0.29369,-0.16316 0.44053,-0.22842 0.14684,-0.0653 0.29369,-0.0979 0.47316,-0.11421 0.39158,-0.0489 0.79948,-0.0163 1.25633,0.13052 0.45684,0.14684 1.06053,0.34264 1.79475,0.65264 0.76685,0.32632 1.35422,0.48947 1.69685,0.50579 0.37527,0.0163 0.68527,-0.0653 0.96264,-0.24473 l 0.0816,-0.0489 c 0.0326,-0.0326 0.0653,-0.0163 0.0816,0.0163 l 0.94633,1.48475 c 0.0163,0.0326 0.0163,0.0653 -0.0163,0.0979 l -0.0653,0.0489 c -0.48948,0.29369 -0.93001,0.5058 -1.35422,0.58738 -0.42422,0.0816 -0.93001,0.0163 -1.51738,-0.11421 -0.14684,-0.0327 -0.55474,-0.19579 -1.25633,-0.48948 -0.39158,-0.16316 -0.7179,-0.27737 -1.01159,-0.37527 -0.29368,-0.0979 -0.53842,-0.14684 -0.7179,-0.16316 -0.35895,-0.0489 -0.63632,0 -0.86474,0.14685 -0.14685,0.0816 -0.27737,0.27737 -0.39158,0.55474 -0.11421,0.27737 -0.19579,0.53842 -0.22843,0.83211 -0.0326,0.29369 0,0.52211 0.0979,0.66895 0.21211,0.35895 0.73422,0.42422 1.48475,0.22843 0.34263,-0.0816 0.63632,-0.14685 0.91369,-0.1958 0.27737,-0.0489 0.48948,-0.0653 0.70159,-0.0653 0.37526,0 0.70158,0.0816 0.99527,0.24474 0.29368,0.16316 0.53842,0.4079 0.76684,0.75053 0.48948,0.78317 0.55474,1.58265 0.17948,2.39844 -0.35895,0.8158 -1.19106,1.61528 -2.4637,2.43108 z m 6.11846,-19.84015 c -0.26105,0.21211 -0.50579,0.31 -0.78316,0.26105 -0.27737,-0.0489 -0.53842,-0.2121 -0.75053,-0.47316 -0.22842,-0.27737 -0.32632,-0.55474 -0.29369,-0.83211 0,-0.27737 0.14685,-0.5058 0.4079,-0.7179 0.26106,-0.21211 0.52211,-0.29369 0.79948,-0.24474 0.27737,0.0489 0.5058,0.19579 0.73422,0.48948 0.21211,0.26105 0.31,0.55474 0.29368,0.83211 -0.0163,0.27737 -0.16315,0.50579 -0.4079,0.68527 z m 9.3164,1.8437 c 0.0326,-0.0327 0.0653,-0.0327 0.0979,0 l 1.10949,1.35422 c 0.0163,0.0489 0.0163,0.0816 -0.0163,0.11421 l -8.46796,6.82005 c -0.0326,0.0326 -0.0816,0.0326 -0.11421,0 l -1.09317,-1.37053 c -0.0326,-0.0326 -0.0163,-0.0653 0.0326,-0.0979 l 1.74581,-1.41948 c -0.76685,-0.13053 -1.38686,-0.52211 -1.89265,-1.14212 -0.73422,-0.91369 -0.99527,-1.87633 -0.79948,-2.92055 0.19579,-1.04422 0.84843,-2.03949 1.97422,-2.93686 l 2.17002,-1.76212 3.72003,4.60109 z m -3.36108,2.70844 -2.51265,-3.13266 -0.31001,0.26106 c -0.57106,0.45684 -0.88106,0.93001 -0.97895,1.45211 -0.0979,0.52211 0.0979,1.02791 0.53842,1.56633 0.37527,0.47316 0.8158,0.73422 1.32159,0.76685 0.5058,0.0326 1.04422,-0.19579 1.59896,-0.63632 z m 3.49161,-14.5538 c -0.17948,0.17947 -0.39159,0.27737 -0.62001,0.29368 -0.22843,0.0163 -0.45685,-0.0816 -0.70159,-0.31 -0.22842,-0.22842 -0.34263,-0.45684 -0.34263,-0.70158 0,-0.21211 0.0979,-0.42421 0.27737,-0.62001 0.17948,-0.17947 0.39158,-0.29368 0.63632,-0.29368 0.22843,0 0.45685,0.0979 0.66896,0.31 0.2121,0.19579 0.32631,0.42421 0.34263,0.66895 0.0163,0.24474 -0.0816,0.45685 -0.26105,0.65264 z m 0.91369,2.70844 c -0.22843,0.24474 -0.47317,0.37527 -0.75054,0.35895 -0.27737,-0.0163 -0.55474,-0.13053 -0.79948,-0.35895 -0.26105,-0.26105 -0.39158,-0.50579 -0.40789,-0.78316 -0.0163,-0.27737 0.0816,-0.53843 0.31,-0.78317 0.22842,-0.22842 0.47316,-0.34263 0.75053,-0.32632 0.27737,0 0.52211,0.13053 0.78316,0.37527 0.24474,0.22842 0.39158,0.48948 0.4079,0.76685 0.0163,0.27737 -0.0816,0.52211 -0.29368,0.75053 z m 1.84369,-1.94159 c -0.22842,0.24474 -0.47316,0.37526 -0.75053,0.37526 -0.27737,0 -0.55474,-0.14684 -0.79948,-0.37526 -0.26105,-0.24474 -0.37526,-0.5058 -0.4079,-0.78317 -0.0326,-0.27737 0.0816,-0.5221 0.31001,-0.78316 0.2121,-0.21211 0.45684,-0.32632 0.75053,-0.32632 0.27737,0 0.52211,0.13053 0.78316,0.37527 0.26106,0.24474 0.4079,0.48947 0.42422,0.78316 0.0163,0.29369 -0.0979,0.52211 -0.31001,0.73422 z m 6.42848,4.09529 c -0.62001,0.65264 -1.46844,0.96264 -2.54529,0.96264 0.14684,0.96264 -0.16316,1.86002 -0.99527,2.72476 l -4.25845,4.45425 c -0.0326,0.0327 -0.0816,0.0327 -0.11422,0 l -1.25632,-1.20738 c -0.0489,-0.0326 -0.0326,-0.0653 0,-0.0979 l 1.37054,-1.43581 -3.3774,-3.21423 1.63159,-1.69686 3.3774,3.21424 0.91369,-0.96264 c 0.35895,-0.37527 0.53843,-0.73422 0.48948,-1.10948 -0.0489,-0.37527 -0.29369,-0.78317 -0.76685,-1.24002 l -2.05581,-1.95791 1.63159,-1.69685 2.18634,2.10475 c 0.17948,0.16316 0.34263,0.34264 0.47316,0.5058 0.42421,0.0489 0.78317,0.0489 1.06054,-0.0326 0.27737,-0.0816 0.55474,-0.29369 0.83211,-0.58738 l 0.68527,-0.70158 -4.27478,-4.09529 1.6316,-1.69686 4.25845,4.0953 1.41949,-1.48475 c 0.0326,-0.049 0.0653,-0.049 0.0979,-0.0163 l 1.25633,1.20738 c 0.0326,0.0489 0.0489,0.0816 0,0.13052 z m -3.21424,-11.66588 c -0.19579,0.26106 -0.42421,0.4079 -0.70159,0.44053 -0.27736,0.0163 -0.55474,-0.0816 -0.83211,-0.29368 -0.29368,-0.21211 -0.44053,-0.45685 -0.48947,-0.71791 -0.0489,-0.29368 0.0326,-0.55474 0.22842,-0.81579 0.19579,-0.26106 0.42421,-0.39158 0.70158,-0.4079 0.27737,-0.0327 0.53843,0.0816 0.83212,0.29369 0.27737,0.2121 0.45684,0.44052 0.48947,0.7179 0.0326,0.27737 -0.0327,0.53842 -0.22842,0.78316 z m 1.63159,-2.12107 c -0.19579,0.26106 -0.42421,0.4079 -0.70158,0.44053 -0.27737,0.0326 -0.57106,-0.0816 -0.83211,-0.29369 -0.29369,-0.2121 -0.44053,-0.44052 -0.48948,-0.7179 -0.0489,-0.27737 0.0326,-0.55474 0.22842,-0.81579 0.19579,-0.26106 0.42421,-0.39158 0.70159,-0.42421 0.27736,-0.0327 0.53842,0.0816 0.83211,0.31 0.26105,0.21211 0.44053,0.44053 0.48947,0.7179 0.049,0.27737 -0.0326,0.53842 -0.22842,0.78316 z m 5.51478,9.65902 c -0.0326,0.0489 -0.0653,0.0489 -0.11421,0.0163 l -1.38685,-1.06053 c -0.0489,-0.0163 -0.0326,-0.0653 0,-0.0979 l 1.46843,-1.94159 -4.69899,-3.57319 1.41949,-1.87633 4.69898,3.57318 1.41949,-1.87633 c 0.0489,-0.0489 0.0653,-0.0489 0.11421,-0.0163 l 1.38685,1.04422 c 0.0326,0.0326 0.0489,0.0653 0.0163,0.11421 z m 10.21377,-15.77749 c -0.44053,0.76685 -1.19107,1.27264 -2.2516,1.5337 0.37527,0.89737 0.27737,1.8437 -0.31,2.8716 l -3.11634,5.3353 c -0.0163,0.0326 -0.0653,0.0489 -0.0979,0.0163 l -1.51738,-0.86474 c -0.0326,-0.0326 -0.0326,-0.0653 -0.0163,-0.11422 l 0.99527,-1.69685 -4.03003,-2.3495 1.17474,-2.03949 4.04635,2.3495 0.66895,-1.15843 c 0.26106,-0.44053 0.34264,-0.83211 0.21211,-1.19107 -0.13053,-0.35894 -0.47316,-0.68526 -1.04422,-1.0279 l -2.44738,-1.41948 1.19106,-2.03949 2.61054,1.53369 c 0.21211,0.13053 0.42422,0.26106 0.58738,0.39159 0.42421,-0.0489 0.76685,-0.14685 1.01158,-0.29369 0.24474,-0.14684 0.47316,-0.4079 0.68527,-0.75053 l 0.48948,-0.84843 -5.10688,-2.9695 1.19106,-2.03949 5.09057,2.9695 1.0279,-1.76212 c 0.0326,-0.049 0.0653,-0.049 0.0979,-0.0326 l 1.51738,0.88106 c 0.0326,0.0326 0.0489,0.049 0.0163,0.11421 z m 2.90423,-5.0253 c -0.0163,0.0489 -0.0653,0.0653 -0.0979,0.0326 l -1.61527,-0.65264 c -0.0489,-0.0326 -0.0489,-0.0653 -0.0326,-0.11421 l 0.68527,-1.63159 c -0.7179,0 -1.4358,-0.13053 -2.17002,-0.44053 -0.42422,-0.17947 -0.83211,-0.42421 -1.27264,-0.76685 -0.44053,-0.34263 -0.79948,-0.70158 -1.04422,-1.06053 -0.0816,-0.57106 -0.0979,-1.15843 -0.0163,-1.7458 0.0816,-0.58738 0.21211,-1.07685 0.37527,-1.46844 0.26105,-0.66895 0.65263,-1.19106 1.15843,-1.63159 0.50579,-0.44053 1.09316,-0.68527 1.72949,-0.78316 0.63632,-0.0979 1.30527,0 2.00685,0.29368 0.37527,0.14685 0.70159,0.35895 0.99528,0.57106 0.29368,0.21211 0.55474,0.47316 0.75053,0.76685 0.42421,0.58737 0.65263,1.25633 0.73421,1.99054 0.0816,0.73422 -0.0489,1.48475 -0.35895,2.20265 z m -2.10475,-4.68267 c 0.48947,0.19579 1.10948,0.31 1.8437,0.35895 l 0.22842,-0.55474 c 0.16316,-0.39158 0.21211,-0.76685 0.16316,-1.15843 -0.0489,-0.39158 -0.17948,-0.73422 -0.42421,-1.04422 -0.24474,-0.31 -0.53843,-0.53843 -0.9137,-0.68527 -0.50579,-0.2121 -0.94632,-0.26105 -1.37053,-0.13052 -0.42422,0.13052 -0.7179,0.39158 -0.88106,0.79947 -0.17948,0.45685 -0.24474,0.96264 -0.14685,1.51738 0.44053,0.37527 0.94632,0.66896 1.50107,0.89738 z"
   id="path11"
   style="display:inline;stroke-width:0.0163159" />

</g>
</svg>
